<?xml version="1.0" encoding="utf-8"?>
<!-- Generator: Adobe Illustrator 24.3.0, SVG Export Plug-In . SVG Version: 6.00 Build 0)  -->
<svg version="1.1" id="Layer_1" xmlns="http://www.w3.org/2000/svg" xmlns:xlink="http://www.w3.org/1999/xlink" x="0px" y="0px"
	 viewBox="0 0 432 432" style="enable-background:new 0 0 432 432;" xml:space="preserve">
<style type="text/css">
	.st0{fill:#4EAFC6;}
	.st1{fill:#FFFFFF;}
	.st2{fill:url(#SVGID_1_);}
	.st3{fill:#B9E0F1;}
</style>
<g id="Y4SGrh.tif">
	
		<image style="overflow:visible;" width="124" height="142" id="Layer_0_1_" xlink:href="F2C81A671CFDFE8.png"  transform="matrix(0.5 0 0 0.5 -78.5178 137.0312)">
	</image>
</g>
<g>
	<path class="st0" d="M322.5,375.8h-213c-9.5,0-17.2-7.7-17.2-17.2V73.4c0-9.5,7.7-17.2,17.2-17.2h171.6l15.4,23.9
		c4.8,4,9.3,20,19.1,24.4l24.1,17v237.2C339.7,368.1,332,375.8,322.5,375.8z"/>
	<path class="st1" d="M296.8,203.1h-163c-2.4,0-4.4-1.9-4.4-4.4v-14.1c0-2.4,1.9-4.4,4.4-4.4h163c2.4,0,4.4,1.9,4.4,4.4v14.1
		C301.1,201.2,299.2,203.1,296.8,203.1z"/>
	<path class="st1" d="M296.9,244H133.7c-2.4,0-4.3-1.9-4.3-4.3v-14.3c0-2.4,1.9-4.3,4.3-4.3h163.2c2.4,0,4.3,1.9,4.3,4.3v14.3
		C301.1,242.1,299.2,244,296.9,244z"/>
	<path class="st1" d="M296.1,285H134.4c-2.8,0-5-2.2-5-5v-12.8c0-2.8,2.2-5,5-5h161.7c2.8,0,5,2.2,5,5V280
		C301.1,282.7,298.9,285,296.1,285z"/>
	<path class="st1" d="M247.4,325.9H135.2c-3.2,0-5.8-2.6-5.8-5.8v-11.3c0-3.2,2.6-5.8,5.8-5.8h112.3c3.2,0,5.8,2.6,5.8,5.8v11.3
		C253.2,323.3,250.6,325.9,247.4,325.9z"/>
	<linearGradient id="SVGID_1_" gradientUnits="userSpaceOnUse" x1="300.7191" y1="102.6728" x2="348.0025" y2="149.9562">
		<stop  offset="0.3294" style="stop-color:#5289A8"/>
		<stop  offset="1" style="stop-color:#5289A8;stop-opacity:0"/>
	</linearGradient>
	<path class="st2" d="M296.8,106.6c0,0,5.4,15.7,19.8,31.7c14.4,16,22.1,21,22.1,21l1-37.8L296.8,106.6z"/>
	<path class="st3" d="M281.1,56.2L281.1,56.2c0,0-1.1,15.3-2.2,29c-1.4,17.9,2.2,26.2,11.7,28.6c4.6,1.2,12.9,3.8,21.2,4.9
		c13.7,1.7,28,2.8,28,2.8l-15.3-18.3C311.8,89.4,287.7,63.9,281.1,56.2z"/>
</g>
</svg>
