<?xml version="1.0" encoding="utf-8"?>
<!-- Generator: Adobe Illustrator 25.0.1, SVG Export Plug-In . SVG Version: 6.00 Build 0)  -->
<svg version="1.1" id="Layer_1" xmlns="http://www.w3.org/2000/svg" xmlns:xlink="http://www.w3.org/1999/xlink" x="0px" y="0px"
	 viewBox="0 0 432 432" style="enable-background:new 0 0 432 432;" xml:space="preserve">
<style type="text/css">
	.st0{fill:#4EAFC6;}
	.st1{fill:#FFFFFF;}
	.st2{fill:url(#SVGID_1_);}
	.st3{fill:#B9E0F1;}
</style>
<g id="Y4SGrh.tif">
	
		<image style="overflow:visible;enable-background:new    ;" width="126" height="144" id="Layer_0_1_" xlink:href="F2C81A671CFDFE8.png"  transform="matrix(0.4926 0 0 0.4926 -199.5532 109.656)">
	</image>
</g>
<g>
	<path class="st0" d="M349.1,415.8H82.9c-11.9,0-21.5-9.6-21.5-21.5V37.8c0-11.9,9.6-21.5,21.5-21.5h214.5l19.2,29.9
		c6,5,11.6,25,23.9,30.5l30.1,21.2v296.5C370.6,406.1,361,415.8,349.1,415.8z"/>
	<path class="st1" d="M317,199.9H113.2c-3,0-5.5-2.4-5.5-5.5v-17.6c0-3,2.4-5.5,5.5-5.5H317c3,0,5.5,2.4,5.5,5.5v17.6
		C322.4,197.5,320,199.9,317,199.9z"/>
	<path class="st1" d="M317.1,251h-204c-3,0-5.4-2.4-5.4-5.4v-17.9c0-3,2.4-5.4,5.4-5.4h204c3,0,5.4,2.4,5.4,5.4v17.9
		C322.4,248.6,320,251,317.1,251z"/>
	<path class="st1" d="M316.1,302.2H114c-3.5,0-6.2-2.8-6.2-6.2v-16c0-3.5,2.8-6.2,6.2-6.2h202.1c3.5,0,6.2,2.8,6.2,6.2v16
		C322.4,299.4,319.6,302.2,316.1,302.2z"/>
	<path class="st1" d="M255.2,353.4H115c-4,0-7.3-3.2-7.3-7.2V332c0-4,3.3-7.2,7.3-7.2h140.4c4,0,7.2,3.3,7.2,7.2v14.1
		C262.5,350.1,259.2,353.4,255.2,353.4z"/>
	
		<linearGradient id="SVGID_1_" gradientUnits="userSpaceOnUse" x1="321.8604" y1="357.6229" x2="380.9854" y2="298.4979" gradientTransform="matrix(1 0 0 -1 0 432)">
		<stop  offset="0.3294" style="stop-color:#5289A8"/>
		<stop  offset="1" style="stop-color:#5289A8;stop-opacity:0"/>
	</linearGradient>
	<path class="st2" d="M317,79.2c0,0,6.8,19.6,24.7,39.6c18,20,27.6,26.2,27.6,26.2l1.2-47.2L317,79.2z"/>
	<path class="st3" d="M297.4,16.3L297.4,16.3c0,0-1.4,19.1-2.8,36.2c-1.8,22.4,2.8,32.7,14.6,35.7c5.8,1.5,16.1,4.8,26.5,6.1
		c17.1,2.1,35,3.5,35,3.5L351.6,75C335.7,57.8,305.6,25.9,297.4,16.3z"/>
</g>
</svg>
