<?xml version="1.0" encoding="utf-8"?>
<!-- Generator: Adobe Illustrator 25.0.1, SVG Export Plug-In . SVG Version: 6.00 Build 0)  -->
<svg version="1.1" id="Layer_1" xmlns="http://www.w3.org/2000/svg" xmlns:xlink="http://www.w3.org/1999/xlink" x="0px" y="0px"
	 viewBox="0 0 1200 1200" style="enable-background:new 0 0 1200 1200;" xml:space="preserve">
<style type="text/css">
	.st0{fill:#DBE4E8;}
	.st1{fill:#CCDFE5;}
</style>
<rect x="0.5" y="0.4" class="st0" width="1200" height="1200"/>
<rect x="25.2" y="156.7" class="st1" width="15.2" height="15.2"/>
<rect x="75.2" y="156.7" class="st1" width="15.2" height="15.2"/>
<rect x="125.2" y="156.7" class="st1" width="15.2" height="15.2"/>
<rect x="175.2" y="156.7" class="st1" width="15.2" height="15.2"/>
<rect x="225.2" y="156.7" class="st1" width="15.2" height="15.2"/>
<rect x="275.2" y="156.7" class="st1" width="15.2" height="15.2"/>
<rect x="325.2" y="156.7" class="st1" width="15.2" height="15.2"/>
<rect x="375.2" y="156.7" class="st1" width="15.2" height="15.2"/>
<rect x="825.2" y="156.7" class="st1" width="15.2" height="15.2"/>
<rect x="875.2" y="156.7" class="st1" width="15.2" height="15.2"/>
<rect x="925.2" y="156.7" class="st1" width="15.2" height="15.2"/>
<rect x="975.2" y="156.7" class="st1" width="15.2" height="15.2"/>
<rect x="1025.2" y="156.7" class="st1" width="15.2" height="15.2"/>
<rect x="1075.2" y="156.7" class="st1" width="15.2" height="15.2"/>
<rect x="1125.2" y="156.7" class="st1" width="15.2" height="15.2"/>
<rect x="1175.2" y="156.7" class="st1" width="15.2" height="15.2"/>
<rect x="25.2" y="106.7" class="st1" width="15.2" height="15.2"/>
<rect x="75.2" y="106.7" class="st1" width="15.2" height="15.2"/>
<rect x="125.2" y="106.7" class="st1" width="15.2" height="15.2"/>
<rect x="175.2" y="106.7" class="st1" width="15.2" height="15.2"/>
<rect x="225.2" y="106.7" class="st1" width="15.2" height="15.2"/>
<rect x="275.2" y="106.7" class="st1" width="15.2" height="15.2"/>
<rect x="325.2" y="106.7" class="st1" width="15.2" height="15.2"/>
<rect x="375.2" y="106.7" class="st1" width="15.2" height="15.2"/>
<rect x="825.2" y="106.7" class="st1" width="15.2" height="15.2"/>
<rect x="875.2" y="106.7" class="st1" width="15.2" height="15.2"/>
<rect x="925.2" y="106.7" class="st1" width="15.2" height="15.2"/>
<rect x="975.2" y="106.7" class="st1" width="15.2" height="15.2"/>
<rect x="1025.2" y="106.7" class="st1" width="15.2" height="15.2"/>
<rect x="1075.2" y="106.7" class="st1" width="15.2" height="15.2"/>
<rect x="1125.2" y="106.7" class="st1" width="15.2" height="15.2"/>
<rect x="1175.2" y="106.7" class="st1" width="15.2" height="15.2"/>
<rect x="25.2" y="56.7" class="st1" width="15.2" height="15.2"/>
<rect x="75.2" y="56.7" class="st1" width="15.2" height="15.2"/>
<rect x="125.2" y="56.7" class="st1" width="15.2" height="15.2"/>
<rect x="175.2" y="56.7" class="st1" width="15.2" height="15.2"/>
<rect x="225.2" y="56.7" class="st1" width="15.2" height="15.2"/>
<rect x="275.2" y="56.7" class="st1" width="15.2" height="15.2"/>
<rect x="325.2" y="56.7" class="st1" width="15.2" height="15.2"/>
<rect x="375.2" y="56.7" class="st1" width="15.2" height="15.2"/>
<rect x="825.2" y="56.7" class="st1" width="15.2" height="15.2"/>
<rect x="875.2" y="56.7" class="st1" width="15.2" height="15.2"/>
<rect x="925.2" y="56.7" class="st1" width="15.2" height="15.2"/>
<rect x="975.2" y="56.7" class="st1" width="15.2" height="15.2"/>
<rect x="1025.2" y="56.7" class="st1" width="15.2" height="15.2"/>
<rect x="1075.2" y="56.7" class="st1" width="15.2" height="15.2"/>
<rect x="1125.2" y="56.7" class="st1" width="15.2" height="15.2"/>
<rect x="1175.2" y="56.7" class="st1" width="15.2" height="15.2"/>
<rect x="25.2" y="6.7" class="st1" width="15.2" height="15.2"/>
<rect x="75.2" y="6.7" class="st1" width="15.2" height="15.2"/>
<rect x="125.2" y="6.7" class="st1" width="15.2" height="15.2"/>
<rect x="175.2" y="6.7" class="st1" width="15.2" height="15.2"/>
<rect x="225.2" y="6.7" class="st1" width="15.2" height="15.2"/>
<rect x="275.2" y="6.7" class="st1" width="15.2" height="15.2"/>
<rect x="325.2" y="6.7" class="st1" width="15.2" height="15.2"/>
<rect x="375.2" y="6.7" class="st1" width="15.2" height="15.2"/>
<rect x="825.2" y="6.7" class="st1" width="15.2" height="15.2"/>
<rect x="875.2" y="6.7" class="st1" width="15.2" height="15.2"/>
<rect x="925.2" y="6.7" class="st1" width="15.2" height="15.2"/>
<rect x="975.2" y="6.7" class="st1" width="15.2" height="15.2"/>
<rect x="1025.2" y="6.7" class="st1" width="15.2" height="15.2"/>
<rect x="1075.2" y="6.7" class="st1" width="15.2" height="15.2"/>
<rect x="1125.2" y="6.7" class="st1" width="15.2" height="15.2"/>
<rect x="1175.2" y="6.7" class="st1" width="15.2" height="15.2"/>
</svg>
