<?xml version="1.0" encoding="utf-8"?>
<!-- Generator: Adobe Illustrator 25.0.1, SVG Export Plug-In . SVG Version: 6.00 Build 0)  -->
<svg version="1.1" id="Layer_1" xmlns="http://www.w3.org/2000/svg" xmlns:xlink="http://www.w3.org/1999/xlink" x="0px" y="0px"
	 viewBox="0 0 1200 1200" style="enable-background:new 0 0 1200 1200;" xml:space="preserve">
<style type="text/css">
	.st0{fill:#DBE4E8;}
	.st1{opacity:0.5;fill:#59CAF1;}
	.st2{opacity:0.2;fill:#59CAF1;}
	.st3{opacity:0.3;fill:#59CAF1;}
	.st4{opacity:0.3;fill:#50B0E3;}
	.st5{opacity:0.1;fill:#59CAF1;}
</style>
<rect class="st0" width="1200" height="1200"/>
<polygon class="st1" points="280,105.9 107.8,105.9 21.8,254.9 107.8,404 280,404 366,254.9 "/>
<polygon class="st1" points="533.8,169.3 434.9,169.3 385.5,254.9 434.9,340.5 533.8,340.5 583.2,254.9 "/>
<polygon class="st1" points="733.5,616 561.4,616 475.3,765 561.4,914.1 733.5,914.1 819.5,765 "/>
<polygon class="st2" points="362.7,645.8 225.1,645.8 156.2,765 225.1,884.3 362.7,884.3 431.6,765 "/>
<polygon class="st3" points="938.8,806.7 826.5,806.7 770.4,903.9 826.5,1001.2 938.8,1001.2 994.9,903.9 "/>
<polygon class="st3" points="737.8,939.1 625.5,939.1 569.4,1036.3 625.5,1133.6 737.8,1133.6 793.9,1036.3 "/>
<polygon class="st4" points="946.9,531.9 834.6,531.9 778.4,629.2 834.6,726.4 946.9,726.4 1003,629.2 "/>
<polygon class="st3" points="746.8,169.3 648,169.3 598.5,254.9 648,340.5 746.8,340.5 796.2,254.9 "/>
<polygon class="st5" points="1077.1,169.3 978.3,169.3 928.8,254.9 978.3,340.5 1077.1,340.5 1126.5,254.9 "/>
<polygon class="st5" points="703.4,398.6 604.5,398.6 555.1,484.2 604.5,569.8 703.4,569.8 752.8,484.2 "/>
<polygon class="st3" points="908.4,268.3 809.6,268.3 760.2,353.9 809.6,439.5 908.4,439.5 957.8,353.9 "/>
<polygon class="st2" points="908.4,70 809.6,70 760.2,155.6 809.6,241.2 908.4,241.2 957.8,155.6 "/>
<g id="_x36_slj4b.tif">
	
		<image style="overflow:visible;" width="322" height="310" id="Layer_0_1_" xlink:href="B65C2EA925DE33A1.png"  transform="matrix(0.5 0 0 0.5 -478.0151 75.3889)">
	</image>
</g>
</svg>
