<?xml version="1.0" encoding="utf-8"?>
<!-- Generator: Adobe Illustrator 24.0.1, SVG Export Plug-In . SVG Version: 6.00 Build 0)  -->
<svg version="1.1" id="Layer_1" xmlns="http://www.w3.org/2000/svg" xmlns:xlink="http://www.w3.org/1999/xlink" x="0px" y="0px"
	 viewBox="0 0 60 60" style="enable-background:new 0 0 60 60;" xml:space="preserve">
<g>
	<path d="M31.1,34.6l2.2,1.4l0.4-0.3l0.5-0.4L47.7,25c0.4-0.2,0.7-0.4,1-0.7l0.2-0.1h-0.1c0.2-0.3,0.4-0.7,0.4-1.1V23h-2.3
		c-0.1,0.2-0.2,0.2-0.2,0.4h0.1l-0.2,0.1c-0.2,0.2-0.5,0.5-0.9,0.6L32.7,34l-0.3,0.2l-0.3,0.2c-1-1.2-2.8-0.6-3.7,0.2
		c-0.2-0.1-0.3-0.2-0.4-0.2l-0.3-0.2L27.3,34l-13-9.8c-0.3-0.2-0.6-0.4-0.9-0.6l-0.2-0.1l0,0c-0.1-0.2-0.2-0.2-0.2-0.4h-2.3v0.1
		c0,0.4,0.2,0.8,0.4,1.1H11l0.2,0.1c0.2,0.3,0.6,0.6,1,0.7l13.7,10.3l0.6,0.4l2.6-1.1L31.1,34.6z"/>
	<path d="M10.7,47h2.3c0.1-0.2,0.2-0.2,0.2-0.4h-0.1l0.2-0.1c0.2-0.2,0.5-0.5,0.9-0.6l13.6-10.3c1.1-0.9,3-0.9,4.1,0l13.6,10.3
		c0.3,0.2,0.6,0.4,0.9,0.6l0.2,0.1l0,0c0.1,0.2,0.2,0.2,0.2,0.4h2.3v-0.1c0-0.4-0.2-0.8-0.4-1.1h0.1l-0.2-0.1
		c-0.2-0.3-0.6-0.6-1-0.7L32.4,33.4c-1.3-1-3.4-1-4.7,0L12.3,45c-0.4,0.2-0.7,0.4-1,0.7l-0.2,0.1h0.1C10.9,46.1,10.7,46.5,10.7,47
		L10.7,47z"/>
	<path d="M49,22.3L49,22.3L49,22.3L49,22.3l-0.1-0.2c-0.2-0.2-0.2-0.3-0.5-0.4c-0.2-0.2-0.3-0.2-0.6-0.3l-7.8-5.8l-7.8-5.9
		C31.7,9.2,30.8,9,30,9s-1.7,0.2-2.3,0.7l-3.9,2.9l-3.9,2.9l-1.3,1l-1.3,1l-2.7,2L12,21.4c-0.2,0.1-0.4,0.2-0.6,0.3
		c-0.2,0.2-0.3,0.2-0.4,0.4L11,22.2l-0.1,0.1l0,0l0,0c-0.2,0.2-0.2,0.3-0.3,0.6c-0.1,0.2,0,0.3,0,0.6v12.2v12.2c0,0.6,0.3,1.3,1,1.7
		c0.6,0.4,1.4,0.7,2.3,0.7H30h16.3c0.9,0,1.7-0.2,2.3-0.7c0.6-0.5,0.9-1.1,0.9-1.7V35.7V23.5c0-0.2,0-0.4-0.1-0.6
		C49.3,22.6,49.2,22.5,49,22.3z M47.2,45.8c0,0.3-0.1,0.6-0.2,0.8c-0.2,0.2-0.3,0.5-0.6,0.6c-0.2,0.2-0.6,0.3-0.9,0.5
		c-0.3,0.1-0.7,0.2-1.1,0.2h-7.2H30h-7.2h-7.2c-0.4,0-0.7-0.1-1.1-0.2c-0.3-0.1-0.6-0.2-0.9-0.5c-0.2-0.2-0.5-0.4-0.6-0.6
		s-0.2-0.6-0.2-0.8v-5.4V35v-5.4v-5.4c0-0.1,0-0.2,0-0.2s0-0.2,0.1-0.2c0.1-0.1,0.2-0.2,0.2-0.2c0.1-0.1,0.1-0.2,0.2-0.2l0,0l0,0
		l0,0l0,0l0,0l0,0l0,0l0,0c0.1-0.1,0.1-0.2,0.2-0.2s0.2-0.1,0.2-0.2c0.1-0.1,0.2-0.1,0.2-0.2c0.1-0.1,0.2-0.1,0.2-0.2l0.8-0.6
		l0.8-0.6l0.8-0.6l0.8-0.6l0.1-1.1l0.1-1.1l0.1-1.1l0.1-1.1l1.4-0.1l1.4-0.1l1.4-0.1l1.4-0.1l1.3-0.9l1.3-0.9l1.3-0.9l1.3-0.9
		c0.3-0.2,0.6-0.4,1-0.5c0.3-0.1,0.7-0.2,1.1-0.2c0.4,0,0.7,0.1,1.1,0.2c0.3,0.1,0.7,0.2,1,0.5l3.5,2.6l6.7,1.1l0.4,4.3l3.2,2.4
		c0.1,0.1,0.2,0.1,0.2,0.2c0.1,0.1,0.2,0.1,0.2,0.2c0.1,0.1,0.2,0.1,0.2,0.2c0.1,0.1,0.2,0.2,0.2,0.2l0,0l0,0l0,0l0,0l0,0l0,0l0,0
		l0,0c0.1,0.1,0.1,0.2,0.2,0.2c0.1,0.1,0.1,0.2,0.1,0.2s0.1,0.2,0.1,0.2c0,0.1,0,0.2,0,0.2v5.4v5.4v5.4v5.7H47.2z"/>
	<path d="M36.5,21.9h-13c-0.5,0-0.9-0.4-0.9-0.9l0,0c0-0.5,0.4-0.9,0.9-0.9h13c0.5,0,0.9,0.4,0.9,0.9l0,0
		C37.4,21.5,37,21.9,36.5,21.9z"/>
	<path d="M36.5,25.5h-13c-0.5,0-0.9-0.4-0.9-0.9l0,0c0-0.5,0.4-0.9,0.9-0.9h13c0.5,0,0.9,0.4,0.9,0.9l0,0
		C37.4,25.1,37,25.5,36.5,25.5z"/>
	<path d="M36.5,29h-13c-0.5,0-0.9-0.4-0.9-0.9l0,0c0-0.5,0.4-0.9,0.9-0.9h13c0.5,0,0.9,0.4,0.9,0.9l0,0C37.4,28.6,37,29,36.5,29z"/>
	<path d="M17.6,27.7v-4.2v-4.8c0-0.7,0.3-1.4,0.7-1.9c0.5-0.5,1.1-0.7,1.9-0.7H30h9.8c0.7,0,1.4,0.3,1.9,0.7
		c0.5,0.5,0.7,1.1,0.7,1.9v9h2v-3.6V18c0-1.2-0.5-2.3-1.3-3.1c-0.8-0.8-1.8-1.2-3-1.2H30H19.9c-1.2,0-2.3,0.5-3.1,1.3
		c-0.8,0.8-1.3,1.9-1.3,3.1v4.2v4.2v1.3L17.6,27.7L17.6,27.7z"/>
</g>
</svg>
