<?xml version="1.0" encoding="utf-8"?>
<!-- Generator: Adobe Illustrator 24.0.1, SVG Export Plug-In . SVG Version: 6.00 Build 0)  -->
<svg version="1.1" id="Layer_1" xmlns="http://www.w3.org/2000/svg" xmlns:xlink="http://www.w3.org/1999/xlink" x="0px" y="0px"
	 viewBox="0 0 432 432" style="enable-background:new 0 0 432 432;" xml:space="preserve">
<style type="text/css">
	.st0{fill:#58595B;}
</style>
<g id="_x34_pC9sl.tif">
	
		<image style="overflow:visible;" width="512" height="512" id="Layer_0_1_" xlink:href="8E5C55A07DF812CA.png"  transform="matrix(0.6561 0 0 0.6561 -493.7064 -28.8503)">
	</image>
</g>
<g>
	<path class="st0" d="M361.2,52.2H254c-10.6,0-16.1,6-16.1,16.6l16.4,17.5l27.6,27.9l-114,114c-6.8,6.8-6.8,17.8,0,24.6l10,10
		c6.8,6.8,17.8,6.8,24.6,0l113.8-113.8l34,34.4l10.9,10c10.6,0,19.2-8.6,19.2-19.2V71.4C380.4,60.8,371.8,52.2,361.2,52.2z"/>
	<path class="st0" d="M302.6,330.8c0,8.2-6.7,14.9-14.9,14.9h-185c-8.2,0-14.9-6.7-14.9-14.9V143.4c0-8.2,6.7-14.9,14.9-14.9h105.7
		l-38.8-39.4H68.8c-11.3,0-20.4,9.1-20.4,20.4v254.3c0,11.3,9.1,20.4,20.4,20.4h253.1c11.3,0,20.4-9.1,20.4-20.4V261.9l-39.7-39.2
		V330.8z"/>
</g>
</svg>
