<?xml version="1.0" encoding="utf-8"?>
<!-- Generator: Adobe Illustrator 25.0.1, SVG Export Plug-In . SVG Version: 6.00 Build 0)  -->
<svg version="1.1" id="Layer_1" xmlns="http://www.w3.org/2000/svg" xmlns:xlink="http://www.w3.org/1999/xlink" x="0px" y="0px"
	 viewBox="0 0 100 100" style="enable-background:new 0 0 100 100;" xml:space="preserve">
<style type="text/css">
	.st0{fill:#555555;}
</style>
<path class="st0" d="M10.2,12.2l2-2c1.9-1.9,4.9-1.9,6.8,0L89.8,81c1.9,1.9,1.9,4.9,0,6.8l-2,2c-1.9,1.9-4.9,1.9-6.8,0L10.2,19
	C8.3,17.2,8.3,14.1,10.2,12.2z"/>
<path class="st0" d="M87.8,10.2l2,2c1.9,1.9,1.9,4.9,0,6.8L19,89.8c-1.9,1.9-4.9,1.9-6.8,0l-2-2c-1.9-1.9-1.9-4.9,0-6.8L81,10.2
	C82.8,8.3,85.9,8.3,87.8,10.2z"/>
</svg>
