<?xml version="1.0" encoding="utf-8"?>
<!-- Generator: Adobe Illustrator 24.0.1, SVG Export Plug-In . SVG Version: 6.00 Build 0)  -->
<svg version="1.1" id="Layer_1" xmlns="http://www.w3.org/2000/svg" xmlns:xlink="http://www.w3.org/1999/xlink" x="0px" y="0px"
	 viewBox="0 0 60 60" style="enable-background:new 0 0 60 60;" xml:space="preserve">
<style type="text/css">
	.st0{fill:#FFFFFF;}
</style>
<g>
	<path class="st0" d="M31.1,34.6l2.2,1.4l0.4-0.3l0.5-0.4l13.5-10.2c0.4-0.2,0.7-0.4,1-0.7l0.1-0.1l-0.1,0c0.2-0.3,0.4-0.7,0.4-1.1
		V23h-2.3c-0.1,0.1-0.1,0.3-0.2,0.4l0,0l-0.1,0.1c-0.2,0.3-0.5,0.5-0.9,0.7l-13,9.8l-0.3,0.2l-0.3,0.3c-1-1.2-2.7-0.6-3.7,0.3
		c-0.1-0.1-0.3-0.2-0.4-0.3l-0.3-0.2L27.3,34l-13.1-9.8c-0.4-0.2-0.7-0.4-0.9-0.7l-0.1-0.1l0,0c-0.1-0.1-0.2-0.3-0.2-0.4h-2.3v0.1
		c0,0.4,0.1,0.8,0.4,1.1l0,0l0.1,0.1c0.3,0.3,0.6,0.6,1,0.8l13.7,10.3l0.6,0.4l2.6-1.1L31.1,34.6z"/>
	<path class="st0" d="M10.8,47h2.3c0.1-0.1,0.1-0.3,0.2-0.4l0,0l0.1-0.1c0.2-0.3,0.5-0.5,0.9-0.7l13.7-10.3c1.1-0.9,3-0.9,4.2,0
		l13.6,10.3c0.4,0.2,0.7,0.4,0.9,0.7l0.1,0.1l0,0c0.1,0.1,0.2,0.3,0.2,0.4h2.3v-0.1c0-0.4-0.1-0.8-0.4-1.1l0,0l-0.1-0.1
		c-0.3-0.3-0.6-0.6-1-0.8L32.3,33.3c-1.3-1-3.4-1-4.7,0L12.2,44.9c-0.4,0.2-0.7,0.4-1,0.7l-0.1,0.1l0.1,0c-0.2,0.3-0.4,0.7-0.4,1.1
		V47z"/>
	<path class="st0" d="M49,22.3L49,22.3L49,22.3L49,22.3l-0.1-0.1c-0.1-0.2-0.3-0.3-0.5-0.4c-0.2-0.1-0.4-0.2-0.6-0.3l-7.8-5.9
		l-7.8-5.9C31.7,9.2,30.9,9,30,9c-0.9,0-1.7,0.2-2.4,0.7l-3.9,2.9l-3.9,2.9l-1.3,1l-1.3,1l-2.6,1.9l-2.6,1.9
		c-0.2,0.1-0.4,0.2-0.6,0.3c-0.2,0.1-0.3,0.3-0.4,0.4L11,22.2l-0.1,0.1l0,0l0,0c-0.1,0.2-0.2,0.4-0.3,0.5c-0.1,0.2-0.1,0.4-0.1,0.6
		v12.2v12.2c0,0.7,0.4,1.3,0.9,1.7c0.6,0.4,1.4,0.7,2.3,0.7H30h16.2c0.9,0,1.7-0.3,2.3-0.7c0.6-0.4,0.9-1,0.9-1.7V35.7V23.4
		c0-0.2,0-0.4-0.1-0.6C49.3,22.7,49.2,22.5,49,22.3z M47.2,45.8c0,0.3-0.1,0.6-0.2,0.8c-0.1,0.3-0.3,0.5-0.6,0.7s-0.6,0.3-0.9,0.5
		c-0.3,0.1-0.7,0.2-1.1,0.2h-7.2H30h-7.2h-7.2c-0.4,0-0.8-0.1-1.1-0.2c-0.3-0.1-0.6-0.3-0.9-0.5c-0.3-0.2-0.5-0.4-0.6-0.7
		c-0.1-0.3-0.2-0.5-0.2-0.8v-5.4V35v-5.4v-5.4c0-0.1,0-0.2,0-0.3s0-0.2,0.1-0.3s0.1-0.2,0.1-0.2c0-0.1,0.1-0.2,0.1-0.2l0,0l0,0l0,0
		l0,0l0,0l0,0l0,0l0,0c0.1-0.1,0.1-0.1,0.2-0.2c0.1-0.1,0.1-0.1,0.2-0.2c0.1-0.1,0.2-0.1,0.2-0.2c0.1,0,0.2-0.1,0.3-0.1l0.8-0.6
		l0.8-0.6l0.8-0.6l0.8-0.6l0.1-1l0.1-1l0.1-1l0.1-1l1.3-0.1l1.3-0.1l1.3-0.1l1.3-0.1l1.3-0.9l1.3-0.9l1.3-0.9l1.3-0.9
		c0.3-0.2,0.6-0.4,1-0.5c0.4-0.1,0.7-0.2,1.1-0.2c0.4,0,0.8,0.1,1.1,0.2c0.4,0.1,0.7,0.3,1,0.5l3.4,2.6l6.8,1.1l0.4,4.3l3.2,2.4
		c0.1,0,0.2,0.1,0.3,0.1c0.1,0.1,0.2,0.1,0.2,0.2c0.1,0.1,0.1,0.1,0.2,0.2c0.1,0.1,0.1,0.1,0.2,0.2l0,0l0,0l0,0l0,0l0,0l0,0l0,0l0,0
		c0.1,0.1,0.1,0.2,0.1,0.2s0.1,0.2,0.1,0.2c0,0.1,0.1,0.2,0.1,0.3c0,0.1,0,0.2,0,0.3v5.4V35v5.4V45.8z"/>
	<path class="st0" d="M36.5,21.9H23.5c-0.5,0-0.9-0.4-0.9-0.9l0,0c0-0.5,0.4-0.9,0.9-0.9h12.9c0.5,0,0.9,0.4,0.9,0.9l0,0
		C37.3,21.5,36.9,21.9,36.5,21.9z"/>
	<path class="st0" d="M36.5,25.5H23.5c-0.5,0-0.9-0.4-0.9-0.9v0c0-0.5,0.4-0.9,0.9-0.9h12.9c0.5,0,0.9,0.4,0.9,0.9v0
		C37.3,25.1,36.9,25.5,36.5,25.5z"/>
	<path class="st0" d="M36.5,28.9H23.5c-0.5,0-0.9-0.4-0.9-0.9v0c0-0.5,0.4-0.9,0.9-0.9h12.9c0.5,0,0.9,0.4,0.9,0.9v0
		C37.3,28.5,36.9,28.9,36.5,28.9z"/>
	<path class="st0" d="M17.6,27.7v-4.2v-4.8c0-0.7,0.3-1.4,0.8-1.8c0.5-0.5,1.1-0.8,1.8-0.8H30h9.8c0.7,0,1.4,0.3,1.8,0.8
		c0.5,0.5,0.8,1.1,0.8,1.8v9h2v-3.5V18c0-1.2-0.5-2.3-1.3-3s-1.9-1.3-3-1.3H30H19.9c-1.2,0-2.3,0.5-3,1.3s-1.3,1.9-1.3,3v4.2v4.2
		v1.3H17.6z"/>
</g>
</svg>
