<?xml version="1.0" encoding="utf-8"?>
<!-- Generator: Adobe Illustrator 24.0.1, SVG Export Plug-In . SVG Version: 6.00 Build 0)  -->
<svg version="1.1" id="Layer_1" xmlns="http://www.w3.org/2000/svg" xmlns:xlink="http://www.w3.org/1999/xlink" x="0px" y="0px"
	 viewBox="0 0 432 432" style="enable-background:new 0 0 432 432;" xml:space="preserve">
<style type="text/css">
	.st0{fill:#36ADC9;}
</style>
<g id="_x34_pC9sl.tif">
	
		<image style="overflow:visible;enable-background:new    ;" width="515" height="515" id="Layer_0_1_" xlink:href="8E5C55A07DF812CA.png"  transform="matrix(0.6523 0 0 0.6523 -493.7064 -28.8503)">
	</image>
</g>
<g>
	<path class="st0" d="M361.2,52.2H254c-10.6,0-16.1,6-16.1,16.6l16.4,17.5l27.6,27.9l-114,114c-6.8,6.8-6.8,17.8,0,24.6l10,10
		c6.8,6.8,17.8,6.8,24.6,0L316.3,149l34,34.4l10.9,10c10.6,0,19.2-8.6,19.2-19.2V71.4C380.4,60.8,371.8,52.2,361.2,52.2z"/>
	<path class="st0" d="M302.6,330.8c0,8.2-6.7,14.9-14.9,14.9h-185c-8.2,0-14.9-6.7-14.9-14.9V143.4c0-8.2,6.7-14.9,14.9-14.9h105.7
		l-38.8-39.4H68.8c-11.3,0-20.4,9.1-20.4,20.4v254.3c0,11.3,9.1,20.4,20.4,20.4h253.1c11.3,0,20.4-9.1,20.4-20.4V261.9l-39.7-39.2
		V330.8z"/>
</g>
<path class="st0" d="M-391.6,406.4c-80.9,0-146.5,65.6-146.5,146.5c0,66.5,44.3,122.7,105.1,140.6c-1-30.1-0.1-35.3-0.1-35.3l0,0
	c0.1-0.1-3.1-3.6-4.6-3.2c-3.6,0.9-15,1.5-21-0.2c-9.5-2.8-16.8-7.3-21.4-14.8c-3.4-5.6-4.5-9-8.2-14.2c-4-5.6-12.8-10.9-14.6-18.6
	c3.5-0.4,8-1.4,11.7-0.2c14.3,4.4,18.8,19.7,30.7,26.6c9.6,5.6,19.7,4.6,28.6,2.7c0.2-7.1,7-16.5,11.7-19.4
	c-0.3-0.2-0.1-0.1-0.6-0.2c-2.4-1.5-6.4-1.2-9.2-2.1c-5.3-1.7-10.7-3.2-15.5-5.3c-14.3-6.4-26.1-16.9-33.1-30.4
	c-2.2-4.1-3-8.4-4.6-13.2c-1.8-5.4-2.9-13.5-2.3-20.2c0.1-2.5,0.2-4.9,0.2-7.4c1-4.1,1.2-8.3,2.5-12c1.8-4.8,3.7-9.9,6.4-14
	c2-3.2,4.8-5.9,6.7-9c-1.2-1.7-1.2-4.4-1.8-6.7c-1.9-7.6-1-18.6,1-25.2c0.5-1.5,1.4-6.9,2.3-7.4c2.1,0,4.3,0,6.4,0
	c1.6,0.9,7.1,1,9.2,1.8c7.1,2.3,13.4,5.5,19,9.2c1.9,1.2,4.5,2.2,5.9,4.1c6.9-2.5,24.3-4,40.7-3.7c19.8,0,31.6,3.4,34.1,3.7
	c2-2.9,6.3-4.3,9.4-6.1c8-4.9,16.9-8.4,29.9-8.4c2.9,5,6.4,20.6,4.4,29.3c-0.7,3.3-1.6,6.7-2.3,9.7c2.9,2.1,4.8,6.1,6.7,9.2
	c5.9,9.4,12.4,28.1,8.7,44.6c-0.8,3.4-0.6,6.2-1.5,9.4c-5,15.7-13,27.3-25,35.8c-7.1,4.9-15.6,8.5-24.5,11.5
	c-4.5,1.4-9.6,1.5-14,3.3c1.6,3.3,4.3,5.8,6.4,8.7c2.3,3.2,3.6,7.3,4.6,11.7c0.1,1.7,0.2,3.3,0.2,5.1c0.6,3.1,0.9,18.8,0.8,22.3
	c-0.3,1.6,0,10.4-0.3,28.6c60.5-18.1,104.5-74.1,104.5-140.4C-245.1,472-310.7,406.4-391.6,406.4z"/>
</svg>
