<?xml version="1.0" encoding="utf-8"?>
<!-- Generator: Adobe Illustrator 24.0.1, SVG Export Plug-In . SVG Version: 6.00 Build 0)  -->
<svg version="1.1" id="Layer_1" xmlns="http://www.w3.org/2000/svg" xmlns:xlink="http://www.w3.org/1999/xlink" x="0px" y="0px"
	 viewBox="0 0 400 400" style="enable-background:new 0 0 400 400;" xml:space="preserve">
<style type="text/css">
	.st0{fill:#FFFFFF;}
</style>
<path class="st0" d="M200,56.5c-80.9,0-146.5,65.6-146.5,146.5c0,66.5,44.3,122.7,105.1,140.6c-1-30.1-0.1-35.3-0.1-35.3l0,0
	c0.1-0.1-3.1-3.6-4.6-3.2c-3.6,0.9-15,1.5-21-0.2c-9.5-2.8-16.8-7.3-21.4-14.8c-3.4-5.6-4.5-9-8.2-14.2c-4-5.6-12.8-10.9-14.6-18.6
	c3.5-0.4,8-1.4,11.7-0.2c14.3,4.4,18.8,19.7,30.7,26.6c9.6,5.6,19.7,4.6,28.6,2.7c0.2-7.1,7-16.5,11.7-19.4
	c-0.3-0.2-0.1-0.1-0.6-0.2c-2.4-1.5-6.4-1.2-9.2-2.1c-5.3-1.7-10.7-3.2-15.5-5.3C131.8,253,120,242.5,113,229
	c-2.2-4.1-3-8.4-4.6-13.2c-1.8-5.4-2.9-13.5-2.3-20.2c0.1-2.5,0.2-4.9,0.2-7.4c1-4.1,1.2-8.3,2.5-12c1.8-4.8,3.7-9.9,6.4-14
	c2-3.2,4.8-5.9,6.7-9c-1.2-1.7-1.2-4.4-1.8-6.7c-1.9-7.6-1-18.6,1-25.2c0.5-1.5,1.4-6.9,2.3-7.4c2.1,0,4.3,0,6.4,0
	c1.6,0.9,7.1,1,9.2,1.8c7.1,2.3,13.4,5.5,19,9.2c1.9,1.2,4.5,2.2,5.9,4.1c6.9-2.5,24.3-4,40.7-3.7c19.8,0,31.6,3.4,34.1,3.7
	c2-2.9,6.3-4.3,9.4-6.1c8-4.9,16.9-8.4,29.9-8.4c2.9,5,6.4,20.6,4.4,29.3c-0.7,3.3-1.6,6.7-2.3,9.7c2.9,2.1,4.8,6.1,6.7,9.2
	c5.9,9.4,12.4,28.1,8.7,44.6c-0.8,3.4-0.6,6.2-1.5,9.4c-5,15.7-13,27.3-25,35.8c-7.1,4.9-15.6,8.5-24.5,11.5
	c-4.5,1.4-9.6,1.5-14,3.3c1.6,3.3,4.3,5.8,6.4,8.7c2.3,3.2,3.6,7.3,4.6,11.7c0.1,1.7,0.2,3.3,0.2,5.1c0.6,3.1,0.9,18.8,0.8,22.3
	c-0.3,1.6,0,10.4-0.3,28.6c60.5-18.1,104.5-74.1,104.5-140.4C346.5,122.1,280.9,56.5,200,56.5z"/>
<path d="M740.8,98.4c-2.4-3.9-4.7-8.9-8.4-11.5c0.9-3.8,2-8.1,2.9-12.2c2.5-11-1.8-30.5-5.5-36.8c-16.3,0.1-27.4,4.4-37.5,10.6
	c-3.9,2.3-9.3,4.1-11.8,7.7c-3.1-0.4-18-4.6-42.8-4.6c-20.7-0.5-42.4,1.5-51.1,4.6c-1.7-2.3-5-3.6-7.4-5.1
	c-7-4.6-14.9-8.6-23.8-11.5c-2.6-0.9-9.5-1.1-11.5-2.2c-2.6,0-5.4,0-8,0c-1.1,0.7-2.3,7.4-2.9,9.3c-2.5,8.3-3.6,22-1.2,31.6
	c0.7,2.9,0.7,6.3,2.2,8.4c-2.4,3.9-5.9,7.3-8.4,11.3c-3.3,5.2-5.8,11.6-8,17.6c-1.7,4.7-2,10-3.2,15.1c-0.1,3.1-0.2,6.2-0.3,9.3
	c-0.7,8.4,0.7,18.5,2.9,25.3c2,6.1,3.1,11.4,5.8,16.6c8.9,17,23.7,30.2,41.6,38.2c6.1,2.7,12.9,4.6,19.5,6.7
	c3.5,1.1,8.5,0.7,11.5,2.6c0.6,0.2,0.3,0.1,0.7,0.3c-5.9,3.6-14.5,15.4-14.7,24.3c-11.2,2.4-23.9,3.6-35.9-3.4
	c-14.9-8.7-20.6-27.9-38.5-33.4c-4.6-1.4-10.3-0.2-14.7,0.3c2.2,9.6,13.3,16.3,18.3,23.3c4.6,6.5,6,10.8,10.3,17.8
	c5.8,9.4,15,15.1,26.9,18.6c7.5,2.2,21.8,1.4,26.3,0.3c2-0.5,6,3.8,5.8,4l0,0c0,0-1.4,7.8,0.6,56.5l104,1.8
	c0.7-32.6,0.1-47.8,0.6-50.2c0.1-4.4-0.2-24.1-1-28c-0.1-2.2-0.2-4.3-0.3-6.4c-1.3-5.6-2.9-10.7-5.8-14.7c-2.6-3.6-6-6.7-8-10.9
	c5.5-2.2,12-2.3,17.6-4.1c11.2-3.7,21.9-8.2,30.8-14.4c15.1-10.7,25.1-25.2,31.4-44.9c1.2-4,0.9-7.5,1.9-11.8
	C756.4,133.7,748.2,110.2,740.8,98.4z"/>
<path d="M900.7-151.8C808.6-151.8,734-77.2,734,14.9c0,74.1,48.4,136.9,115.3,158.6v53.1h102.8v-53.1
	c66.9-21.7,115.3-84.5,115.3-158.6C1067.4-77.2,992.8-151.8,900.7-151.8z M901.3,175.2c-88.1,0-159.5-71.4-159.5-159.5
	s71.4-159.5,159.5-159.5s159.5,71.4,159.5,159.5S989.4,175.2,901.3,175.2z"/>
</svg>
