<?xml version="1.0" encoding="utf-8"?>
<!-- Generator: Adobe Illustrator 24.0.1, SVG Export Plug-In . SVG Version: 6.00 Build 0)  -->
<svg version="1.1" id="Layer_1" xmlns="http://www.w3.org/2000/svg" xmlns:xlink="http://www.w3.org/1999/xlink" x="0px" y="0px"
	 viewBox="0 0 400 400" style="enable-background:new 0 0 400 400;" xml:space="preserve">
<path d="M312.8,102.9c-2.4-3.9-4.7-8.9-8.4-11.5c0.9-3.8,2-8.1,2.9-12.2c2.5-11-1.8-30.5-5.5-36.8c-16.3,0.1-27.4,4.4-37.5,10.6
	c-3.9,2.3-9.3,4.1-11.8,7.7c-3.1-0.4-6.2-1.5-8.9-2.2c-4.6-0.7-9.2-1.5-13.7-2.2c-3.6-0.3-7.3-0.7-10.9-1c-1.9,0-3.8,0-5.8,0
	c-4.1-0.9-11.5-0.7-15.7,0c-3.4,0.1-6.9,0.2-10.3,0.3c-9.8,2.2-19.9,2-28.6,5.1c-1.7-2.3-5-3.6-7.4-5.1c-7-4.6-14.9-8.6-23.8-11.5
	c-2.6-0.9-9.5-1.1-11.5-2.2c-2.6,0-5.4,0-8,0c-1.1,0.7-2.3,7.4-2.9,9.3c-2.5,8.3-3.6,22-1.2,31.6c0.7,2.9,0.7,6.3,2.2,8.4
	c-2.4,3.9-5.9,7.3-8.4,11.3c-3.3,5.2-5.8,11.6-8,17.6c-1.7,4.7-2,10-3.2,15.1c-0.1,3.1-0.2,6.2-0.3,9.3c-0.7,8.4,0.7,18.5,2.9,25.3
	c2,6.1,3.1,11.4,5.8,16.6c8.9,17,23.7,30.2,41.6,38.2c6.1,2.7,12.9,4.6,19.5,6.7c3.5,1.1,8.5,0.7,11.5,2.6c0.6,0.2,0.3,0.1,0.7,0.3
	c-5.9,3.6-14.5,15.4-14.7,24.3c-11.2,2.4-23.9,8.6-35.9,1.6c-14.9-8.7-20.6-27.9-38.5-33.4c-4.6-1.4-10.3-0.2-14.7,0.3
	c2.2,9.6,13.3,11.3,18.3,18.3c4.6,6.5,6,15.8,10.3,22.8c5.8,9.4,15,15.2,26.9,18.6c2.9,0.8,5.5,0.2,8.7,1c5.2,1.2,13.1,0.4,17.6-0.7
	c2-0.5,4.3,0,5.8-1c0.1,0,0.2,0,0.3,0c-0.1,4.3-0.2,8.5-0.3,12.8c1.8,8.4,1.9,25.8-1.6,31.7c-2.4,4.1-6.5,5.3-10.3,8
	c-1.9,1.3-2.4,3.6-3.8,5.5c0.2,0.7,0.1,0.6,0.3,1c6,4.7,20.2,0.9,25-1.6c4.6-2.4,8.5-5.7,10.6-10.6c3.3-7.9,3.3-24.7,1.2-34.3
	c-0.1-2.9-0.2-5.8-0.3-8.7c-0.8-3.8-0.9-11.2,0-15.1c1.3-5.6,3.2-7.6,5.8-11.5c0.1,0,0.2,0,0.3,0c-0.6,8.4-1.8,20.5,0,28.8
	c0.1,3.3,0.2,6.6,0.3,9.9c1.1,4.8,1.5,20.2,0.3,25.3c-1.2,5.2-1.7,10.8-4.1,14.7c-2.6,4.3-6.2,6.1-6.1,13.5
	c7.2,0.1,13.5,0.1,18.3-2.9c20.9-13,11.3-59.9,13.2-89.7c0.9-0.8,2-1.7,2.9-2.6c0.4,0,0.8,0,1.2,0c0.4,3,0.8,6,1.2,8.9
	c0.7,3.6-0.1,7.9,0.7,11.3c0,7,0,14.1,0,21.2c0,18.8,0.6,35.1,8.4,45.8c3.3,4.6,7,6,13.5,7.7c1.7,0.4,6,1.4,7.7,0.3
	c0.7,0,1.2,0,1.9,0c1.4-7.5-6.3-13.1-8.4-19.9c-1.5-5-3.2-19.4-1.9-25.3c0.6-2.8-0.2-6.5,0.3-8.9c0.8-3.7-0.1-7.6,0.7-10.9
	c1.3-6.1-0.3-13.3,1-19.2c0.3-1.4,0.2-4.9-0.3-5.8c0-0.7,0-1.2,0-1.9c3.6,2.4,8.2,17.5,6.4,25.3c-1.1,4.7,0.2,10.1-1,15.1
	c-1.6,7-1.5,22.4,1,28.2c1.3,3.1,4.6,6.8,7,8.7c4.1,3.1,9,5.4,14.7,6.7c5.3,1.3,12.2-1.1,13.5-4.1c0.6-2-3.6-4.4-5.1-5.5
	c-4.9-3.3-8.1-7.3-9.9-13.7c-1.7-6.2-2.2-22.5-0.7-29.5c0.1-4.4,0.2-8.8,0.3-13.2c0.8-3.9,0.8-11.5,0-15.4c-0.1-2.2-0.2-4.3-0.3-6.4
	c-1.3-5.6-2.9-10.7-5.8-14.7c-2.6-3.6-6-6.7-8-10.9c5.5-2.2,12-2.3,17.6-4.1c11.2-3.7,21.9-8.2,30.8-14.4
	c15.1-10.7,25.1-25.2,31.4-44.9c1.2-4,0.9-7.5,1.9-11.8C328.4,138.2,320.2,114.7,312.8,102.9z"/>
</svg>
