<?xml version="1.0" encoding="utf-8"?>
<!-- Generator: Adobe Illustrator 24.0.1, SVG Export Plug-In . SVG Version: 6.00 Build 0)  -->
<svg version="1.1" id="Layer_1" xmlns="http://www.w3.org/2000/svg" xmlns:xlink="http://www.w3.org/1999/xlink" x="0px" y="0px"
	 viewBox="0 0 400 400" style="enable-background:new 0 0 400 400;" xml:space="preserve">
<style type="text/css">
	.st0{fill:#FFFFFF;}
</style>
<g>
	<path class="st0" d="M127.9,110.9c-1.8,1.3-4.1,1.1-6.4,1.9c-5.1,2-9.1,8.3-10.9,13.8c-4,12.5,10.1,29.4,23.2,25.6
		c7.3-2.1,13.5-6.2,16.3-12.8C156.7,123.6,143.3,110.6,127.9,110.9z"/>
	<path class="st0" d="M114.6,169.4c-0.5,0.4-0.1,0.2-1,0.5c0,38.4,0,76.8,0,115.2c4.9,1.6,31.3,1.2,34.4,0c0.3,0,0.6,0,1,0
		c0-38.4,0-76.8,0-115.2C138.1,170,124.7,171.4,114.6,169.4z"/>
	<path class="st0" d="M278.1,183.8c-7-11.1-26.8-21.4-46.7-15.7c-10,2.8-18.4,9.6-23.2,17.7c-0.3,0-0.6,0-1,0
		c-1.5-4.5-0.6-11.3-0.5-15.7c-2.4-0.1-6.3-0.6-7.4,0c-7.3-0.1-20.7-1.5-26.6,0.5c1.8,9.2,0.5,23.4,0.5,35c0,19.4,0,35.2,0,54.2
		c0,8.7,0,17.4,0,26.1c1.5-0.1,1.4-0.3,1.9,0c8.1,0.1,27.5,1.9,33-1c0-16.8,0-33.9,0-50.7c0-13.9,0.1-25.2,7.9-31
		c1.8-1.3,3.6-3.5,5.9-4.5c4.9-1.9,18,0,21.1,2.9c3.5,3.2,5.1,9,6.4,14.3c0.6,2.2-0.4,4.9,0.5,6.4c0,14.4,0,28.9,0,43.3
		c0,6.1-1.2,15,0.5,20.2c8.5,0.1,27.8,1.7,34.4-0.5c0-16.8,0-33.9,0-50.7c0-10.4,0.6-22.2-1.5-30.5
		C281.6,196,281.7,189.7,278.1,183.8z"/>
	<path class="st0" d="M334.1,266.9c0-46.2,0-92.2,0-138.3c0-24.7,2.7-46.5-11.8-57.1c-13.4-9.8-44.2-6.4-67-6.4
		c-54.2,0-108.3,0-162.5,0c-2.7,1.7-8.3,1.5-11.3,2.9c-6.8,3.6-12.6,10.3-15.6,17.7c-2,4.9-1.5,12.2-1.5,18.7c0,11.3,0,22.7,0,33.9
		c0,40,0,80.1,0,120.1c0,16.3-2.5,48.4,2.9,59c10.4,20.2,31.3,17.3,61.1,17.3c44.8,0,89.6,0,134.4,0c10.4,0,21.1,0,31.5,0
		c6.2,0,12.7,0.6,17.7-1c4.6-1.4,9.3-4.6,12.8-7.4C337.3,316.7,334.1,289.1,334.1,266.9z M309.6,308.2c-0.4,1.2-0.6,0.8-1,1.9
		c-13.4,3.1-37.3,1-54.2,1c-36.4,0-72.9,0-109.3,0c-13.1,0-26.2,0-39.4,0c-5.7,0-12.2,1.5-15.7-1c-2.9-2.1-2.4-8.8-2.4-13.8
		c0-12.3,0-24.6,0-36.9c0-40,0-80.1,0-120.1c0-13.8-2.7-40.7,2.4-49.7c1.5-0.5,2.9-1,4.5-1.5c48,1.2,98.3,0.5,147.2,0.5
		c14.7,0,29.6,0,44.3,0c5.1,0,10.2,0,15.2,0c0.7-0.1,1.6-0.8,2.9-0.5c2,0.4,3.6,1.9,5.4,2.4c3,13.2,1,38.8,1,55.6
		c0,35.6,0,71.2,0,106.8c0,13.1,0,26.2,0,39.4C310.6,298.1,312,305,309.6,308.2z"/>
</g>
</svg>
