<?xml version="1.0" encoding="utf-8"?>
<!-- Generator: Adobe Illustrator 24.0.1, SVG Export Plug-In . SVG Version: 6.00 Build 0)  -->
<svg version="1.1" id="Layer_1" xmlns="http://www.w3.org/2000/svg" xmlns:xlink="http://www.w3.org/1999/xlink" x="0px" y="0px"
	 viewBox="0 0 400 400" style="enable-background:new 0 0 400 400;" xml:space="preserve">
<style type="text/css">
	.st0{fill:#FFFFFF;}
</style>
<g>
	<path class="st0" d="M111.2,90c-2.2,1.6-5,1.3-7.9,2.4c-6.3,2.5-11.2,10.3-13.4,17c-5,15.4,12.5,36.3,28.6,31.6
		c9-2.6,16.7-7.7,20.1-15.8C146.7,105.7,130.2,89.7,111.2,90z"/>
	<path class="st0" d="M94.8,162.3c-0.6,0.5-0.1,0.2-1.2,0.6c0,47.4,0,94.8,0,142.2c6,2,38.7,1.5,42.5,0c0.4,0,0.8,0,1.2,0
		c0-47.4,0-94.8,0-142.2C123.8,163,107.2,164.7,94.8,162.3z"/>
	<path class="st0" d="M296.6,180c-8.6-13.7-33.1-26.4-57.7-19.4c-12.3,3.5-22.7,11.8-28.6,21.9c-0.4,0-0.8,0-1.2,0
		c-1.9-5.5-0.7-14-0.6-19.4c-3-0.1-7.8-0.7-9.1,0c-9-0.1-25.5-1.8-32.8,0.6c2.2,11.4,0.6,28.9,0.6,43.2c0,23.9,0,43.5,0,66.9
		c0,10.8,0,21.5,0,32.2c1.8-0.1,1.7-0.4,2.4,0c10,0.1,33.9,2.3,40.7-1.2c0-20.8,0-41.8,0-62.6c0-17.1,0.1-31.1,9.7-38.3
		c2.2-1.6,4.5-4.3,7.3-5.5c6-2.4,22.2,0,26.1,3.6c4.3,3.9,6.3,11.1,7.9,17.6c0.7,2.7-0.5,6,0.6,7.9c0,17.8,0,35.7,0,53.5
		c0,7.5-1.5,18.5,0.6,24.9c10.5,0.1,34.3,2.1,42.5-0.6c0-20.8,0-41.8,0-62.6c0-12.9,0.7-27.4-1.8-37.7
		C300.9,195.1,301.1,187.3,296.6,180z"/>
	<path class="st0" d="M365.8,282.7c0-57,0-113.8,0-170.8c0-30.5,3.3-57.4-14.6-70.5c-16.5-12.1-54.6-7.9-82.7-7.9
		c-66.9,0-133.7,0-200.6,0c-3.3,2.1-10.3,1.8-14,3.6C45.5,41.6,38.4,49.8,34.6,59c-2.5,6.1-1.8,15-1.8,23.1c0,14,0,28,0,41.9
		c0,49.4,0,98.9,0,148.3c0,20.1-3.1,59.8,3.6,72.9c12.8,24.9,38.7,21.3,75.4,21.3c55.3,0,110.6,0,165.9,0c12.9,0,26,0,38.9,0
		c7.7,0,15.7,0.7,21.9-1.2c5.7-1.7,11.5-5.7,15.8-9.1C369.7,344.1,365.8,310,365.8,282.7z M335.5,333.7c-0.5,1.5-0.7,1-1.2,2.4
		c-16.5,3.8-46.1,1.2-66.9,1.2c-45,0-90,0-134.9,0c-16.2,0-32.4,0-48.6,0c-7,0-15,1.9-19.4-1.2c-3.6-2.6-3-10.9-3-17
		c0-15.2,0-30.4,0-45.6c0-49.4,0-98.9,0-148.3c0-17-3.3-50.3,3-61.4c1.8-0.6,3.6-1.2,5.5-1.8c59.3,1.5,121.4,0.6,181.7,0.6
		c18.2,0,36.5,0,54.7,0c6.3,0,12.6,0,18.8,0c0.9-0.1,2-1,3.6-0.6c2.5,0.5,4.4,2.3,6.7,3c3.7,16.3,1.2,47.9,1.2,68.7
		c0,43.9,0,87.9,0,131.9c0,16.2,0,32.4,0,48.6C336.7,321.2,338.5,329.7,335.5,333.7z"/>
</g>
</svg>
