<?xml version="1.0" encoding="utf-8"?>
<!-- Generator: Adobe Illustrator 24.0.1, SVG Export Plug-In . SVG Version: 6.00 Build 0)  -->
<svg version="1.1" id="Layer_1" xmlns="http://www.w3.org/2000/svg" xmlns:xlink="http://www.w3.org/1999/xlink" x="0px" y="0px"
	 viewBox="0 0 400 400" style="enable-background:new 0 0 400 400;" xml:space="preserve">
<rect x="113.6" y="169.4" width="35.4" height="117.1"/>
<path d="M308.2,66.8H88.9c-12.8,0-23.3,10.4-23.3,23.3v219.3c0,12.8,10.4,23.3,23.3,23.3h219.3c12.8,0,23.3-10.4,23.3-23.3V90.1
	C331.5,77.2,321.1,66.8,308.2,66.8z M310.9,298.4c0,7.6-6.1,13.7-13.7,13.7H99.9c-7.6,0-13.7-6.1-13.7-13.7V101.1
	c0-7.6,6.1-13.7,13.7-13.7h197.3c7.6,0,13.7,6.1,13.7,13.7V298.4z"/>
<path d="M283.3,204.1c-1.7-8.1-1.6-14.4-5.2-20.3c-7-11.1-26.8-21.4-46.7-15.7c-10,2.8-18.4,9.6-23.2,17.7c0,0-0.1,0-0.1,0v-16.4
	h-35.4v117.1h35.4v-52.3c0-13.9,0.1-25.2,7.9-31c1.8-1.3,12.8-10.8,27-1.6c4,2.6,6.2,8.3,6.4,14.3c0.1,2.3,0.5,35.3,0.5,49.7
	c0,6.1,0,14,0.5,20.2c8.5,0.1,28.6,0.4,34.5,0.4c0-16.8-0.1-34.8-0.1-51.6C284.8,224.2,285.4,212.4,283.3,204.1z"/>
<circle cx="131.3" cy="131.1" r="20.1"/>
</svg>
