<?xml version="1.0" encoding="utf-8"?>
<!-- Generator: Adobe Illustrator 24.3.0, SVG Export Plug-In . SVG Version: 6.00 Build 0)  -->
<svg version="1.1" id="Layer_1" xmlns="http://www.w3.org/2000/svg" xmlns:xlink="http://www.w3.org/1999/xlink" x="0px" y="0px"
	 viewBox="0 0 432 432" style="enable-background:new 0 0 432 432;" xml:space="preserve">
<style type="text/css">
	.st0{fill:#53A4C4;}
	.st1{fill:#FFFFFF;}
	.st2{fill:url(#SVGID_1_);}
	.st3{fill:#C6DDE5;}
	.st4{fill:url(#SVGID_2_);}
	.st5{fill:url(#SVGID_3_);}
</style>
<g id="Y4SGrh.tif">
	
		<image style="overflow:visible;" width="124" height="142" id="Layer_0_1_" xlink:href="57C3C7E9FB5BB8B8.png"  transform="matrix(0.5 0 0 0.5 -460.0746 137.0312)">
	</image>
</g>
<path class="st0" d="M-59,375.8h-213c-9.5,0-17.2-7.7-17.2-17.2V73.4c0-9.5,7.7-17.2,17.2-17.2h171.6L-85,80.1
	c4.8,4,9.3,20,19.1,24.4l24.1,17v237.2C-41.8,368.1-49.5,375.8-59,375.8z"/>
<path class="st1" d="M-84.8,203.1h-163c-2.4,0-4.4-1.9-4.4-4.4v-14.1c0-2.4,1.9-4.4,4.4-4.4h163c2.4,0,4.4,1.9,4.4,4.4v14.1
	C-80.4,201.2-82.4,203.1-84.8,203.1z"/>
<path class="st1" d="M-84.7,244h-163.2c-2.4,0-4.3-1.9-4.3-4.3v-14.3c0-2.4,1.9-4.3,4.3-4.3h163.2c2.4,0,4.3,1.9,4.3,4.3v14.3
	C-80.4,242.1-82.3,244-84.7,244z"/>
<path class="st1" d="M-85.4,285h-161.7c-2.8,0-5-2.2-5-5v-12.8c0-2.8,2.2-5,5-5h161.7c2.8,0,5,2.2,5,5V280
	C-80.4,282.7-82.7,285-85.4,285z"/>
<path class="st1" d="M-134.1,325.9h-112.3c-3.2,0-5.8-2.6-5.8-5.8v-11.3c0-3.2,2.6-5.8,5.8-5.8h112.3c3.2,0,5.8,2.6,5.8,5.8v11.3
	C-128.3,323.3-130.9,325.9-134.1,325.9z"/>
<linearGradient id="SVGID_1_" gradientUnits="userSpaceOnUse" x1="-80.8376" y1="102.6728" x2="-33.5542" y2="149.9562">
	<stop  offset="0.3294" style="stop-color:#5289A8"/>
	<stop  offset="1" style="stop-color:#5289A8;stop-opacity:0"/>
</linearGradient>
<path class="st2" d="M-84.7,106.6c0,0,5.4,15.7,19.8,31.7s22.1,21,22.1,21l1-37.8L-84.7,106.6z"/>
<polygon class="st3" points="170.5,2.3 434.1,245.1 434.2,5.3 "/>
<linearGradient id="SVGID_2_" gradientUnits="userSpaceOnUse" x1="51.6423" y1="3.4358" x2="458.5823" y2="410.3758">
	<stop  offset="0.1955" style="stop-color:#B3BBBC"/>
	<stop  offset="0.5938" style="stop-color:#919899"/>
</linearGradient>
<path class="st4" d="M431.3,243.3C341,184.5,201.7,9.9,167.7,0.5c-0.7-0.2-1.4-0.3-2.1-0.5H55.1c12,30.1,38.4,178.4,142.3,288.7
	C318.4,416.9,437,432,437,432L431.3,243.3z"/>
<linearGradient id="SVGID_3_" gradientUnits="userSpaceOnUse" x1="266.1237" y1="161.8234" x2="453.3872" y2="349.0868">
	<stop  offset="0.3294" style="stop-color:#5289A8"/>
	<stop  offset="1" style="stop-color:#5289A8;stop-opacity:0"/>
</linearGradient>
<path class="st5" d="M241.7,186.3c0,0,23.1,58,85.2,117s95.2,77.2,95.2,77.2l4.4-139.3L241.7,186.3z"/>
<path class="st1" d="M174,2.3L174,2.3c0,0-4.6,56.3-9.4,106.9c-6.2,66,9.3,96.4,50.3,105.5c19.6,4.3,55.4,14.1,91.1,17.9
	c58.9,6.3,120.4,10.3,120.4,10.3l-65.7-67.5C306.3,124.7,202.3,30.9,174,2.3z"/>
</svg>
