<?xml version="1.0" encoding="utf-8"?>
<!-- Generator: Adobe Illustrator 25.0.1, SVG Export Plug-In . SVG Version: 6.00 Build 0)  -->
<svg version="1.1" id="Layer_1" xmlns="http://www.w3.org/2000/svg" xmlns:xlink="http://www.w3.org/1999/xlink" x="0px" y="0px"
	 viewBox="0 0 432 432" style="enable-background:new 0 0 432 432;" xml:space="preserve">
<style type="text/css">
	.st0{fill:#F9C0C7;}
	.st1{fill:#FFFFFF;}
	.st2{fill:none;stroke:#F9C0C7;stroke-miterlimit:10;}
	.st3{fill:#529BBA;}
	.st4{fill:url(#SVGID_1_);}
</style>
<path class="st0" d="M533.1-103.1c0,0,7.9-23,8.1-30.6c0.4-20.2-2.8-39.6-17.2-38.7c-14.5,0.9-18.5,22.8-17.2,28.7
	c1.3,6-0.6,17.4,13.4,42.3c0,0-17.9,42.7-21.5,48.5c0,0-28.7,6.4-43.6,24.9c-14.9,18.5-12.8,31.3-3.2,35.5
	c9.6,4.3,22.8-1.1,37.4-25.1s15.9-25.3,15.9-25.3s16.6-5.5,31.9-7s23-1.7,23-1.7s16.6,18.1,28.5,21.5c11.9,3.4,36.2,5.5,37.2-9.6
	s-13.2-18.4-27.2-22.4s-32.3-2.7-32.3-2.7s-20-19.8-24.9-27.6l-6.3-7L533.1-103.1z"/>
<g id="Y4SGrh.tif">
	
		<image style="overflow:visible;enable-background:new    ;" width="126" height="144" id="Layer_0_1_" xlink:href="../F2C81A671CFDFE8.png"  transform="matrix(0.4926 0 0 0.4926 -78.5532 137.0622)">
	</image>
</g>
<path class="st1" d="M-122.2,203.1h-163c-2.4,0-4.4-1.9-4.4-4.4v-14.1c0-2.4,1.9-4.4,4.4-4.4h163c2.4,0,4.4,1.9,4.4,4.4v14.1
	C-117.9,201.2-119.8,203.1-122.2,203.1z"/>
<path class="st1" d="M-122.1,244h-163.2c-2.4,0-4.3-1.9-4.3-4.3v-14.3c0-2.4,1.9-4.3,4.3-4.3h163.2c2.4,0,4.3,1.9,4.3,4.3v14.3
	C-117.9,242.1-119.8,244-122.1,244z"/>
<path class="st1" d="M-122.9,285h-161.7c-2.8,0-5-2.2-5-5v-12.8c0-2.8,2.2-5,5-5h161.7c2.8,0,5,2.2,5,5V280
	C-117.9,282.7-120.1,285-122.9,285z"/>
<path class="st1" d="M-171.6,325.9h-112.2c-3.2,0-5.8-2.6-5.8-5.8v-11.3c0-3.2,2.6-5.8,5.8-5.8h112.3c3.2,0,5.8,2.6,5.8,5.8v11.3
	C-165.8,323.3-168.4,325.9-171.6,325.9z"/>
<g id="d39PdJ.tif">
	
		<image style="overflow:visible;" width="292" height="388" id="Layer_0_2_" xlink:href="877D959A7D058EAE.png"  transform="matrix(1 0 0 1 500.4565 14.0002)">
	</image>
</g>
<path class="st2" d="M623.9,175c0,0,7.9-23,8.1-30.6c0.4-20.2-2.8-39.6-17.2-38.7c-14.5,0.9-18.5,22.8-17.2,28.7
	c1.3,6-0.6,17.4,13.4,42.3c0,0-17.9,42.7-21.5,48.5c0,0-28.7,6.4-43.6,24.9s-12.8,31.3-3.2,35.5c9.6,4.3,22.8-1.1,37.4-25.1
	c14.7-24,15.9-25.3,15.9-25.3s16.6-5.5,31.9-7c15.3-1.5,23-1.7,23-1.7s16.6,18.1,28.5,21.5c11.9,3.4,36.2,5.5,37.2-9.6
	c1.1-15.1-13.2-18.4-27.2-22.4s-32.3-2.7-32.3-2.7s-20-19.8-24.9-27.6l-6.3-7L623.9,175z"/>
<path class="st2" d="M616.7,161c0,0-7.4-17-6.4-27s4-15.5,6.4-14.9c2.3,0.6,4.7,19.8,3.6,26.6C619.3,152.5,616.7,161,616.7,161z"/>
<path class="st2" d="M618.4,188.9c0,0-9.8,27.9-13.6,31.7c0,0,26.8-6.2,33.8-6.2c0,0-10.4-11.5-14.2-19.1
	C620.5,187.6,618.4,188.9,618.4,188.9z"/>
<path class="st2" d="M577.4,242.7c-15.9,7.9-34.7,24.7-29.6,31s21.7-15.9,25.1-21.5S577.4,242.7,577.4,242.7z"/>
<path class="st2" d="M669,225.4c8.1,8.3,16.6,13.4,24.2,14c7.7,0.6,11.5-0.9,10-3.6c-1.5-2.8-7.7-7.7-18.5-9.6
	C673.9,224.4,669,225.4,669,225.4z"/>
<path class="st0" d="M525.9-117.1c0,0-7.4-17-6.4-27s4-15.5,6.4-14.9s4.7,19.8,3.6,26.6C528.5-125.6,525.9-117.1,525.9-117.1z"/>
<path class="st0" d="M527.6-89.3c0,0-9.8,27.9-13.6,31.7c0,0,26.8-6.2,33.8-6.2c0,0-10.4-11.5-14.2-19.1S527.6-89.3,527.6-89.3z"/>
<path class="st0" d="M486.6-35.5c-15.9,7.9-34.7,24.7-29.6,31c5.1,6.4,21.7-15.9,25.1-21.5C485.5-31.4,486.6-35.5,486.6-35.5z"/>
<path class="st0" d="M578.2-52.7c8.1,8.3,16.6,13.4,24.2,14c7.7,0.6,11.5-0.9,10-3.6c-1.5-2.8-7.7-7.7-18.5-9.6
	S578.2-52.7,578.2-52.7z"/>
<g>
	<g>
		<path class="st1" d="M82.9,409.8c-8.5,0-15.5-7-15.5-15.5V37.8c0-8.5,7-15.5,15.5-15.5h211.2l18,27.9l0.7,0.6
			c1.4,1.1,3.6,5.1,5.5,8.6c4.5,8.1,10,18.1,19.2,22.5l27.1,19.1v293.4c0,8.5-7,15.4-15.5,15.4H82.9z"/>
		<path class="st3" d="M290.8,28.2l15.7,24.4l1,1.5l1.3,1.1c0.9,1,2.8,4.5,4.2,7c4.6,8.2,10.8,19.4,21.4,24.8l24.2,17.1v290.3
			c0,5.2-4.3,9.4-9.5,9.4H82.9c-5.2,0-9.5-4.3-9.5-9.5V37.8c0-5.2,4.3-9.5,9.5-9.5H290.8 M297.4,16.2H82.9
			c-11.9,0-21.5,9.6-21.5,21.5v356.5c0,11.9,9.6,21.5,21.5,21.5h266.2c11.9,0,21.5-9.6,21.5-21.4V97.9l-30.1-21.2
			c-12.2-5.5-17.9-25.5-23.9-30.5L297.4,16.2L297.4,16.2z"/>
	</g>
	
		<linearGradient id="SVGID_1_" gradientUnits="userSpaceOnUse" x1="321.8604" y1="357.6229" x2="380.9854" y2="298.4979" gradientTransform="matrix(1 0 0 -1 0 432)">
		<stop  offset="0.2625" style="stop-color:#57BBE9"/>
		<stop  offset="1" style="stop-color:#FFFFFF;stop-opacity:0"/>
	</linearGradient>
	<path class="st4" d="M317,79.2c0,0,6.8,19.6,24.7,39.6c18,20,27.6,26.2,27.6,26.2l1.2-47.2L317,79.2z"/>
	<g>
		<path class="st3" d="M297.4,16.3L297.4,16.3c0,0-1.4,19.1-2.8,36.2c-1.8,22.4,2.8,32.7,14.6,35.7c5.8,1.5,16.1,4.8,26.5,6.1
			c17.1,2.1,35,3.5,35,3.5L351.6,75C335.7,57.8,305.6,25.9,297.4,16.3z"/>
	</g>
	<g>
		<path class="st1" d="M110.3,283.6c-1.9,0-3.7-0.4-5.4-1.2c-3-1.3-4.9-3.5-5.6-6.5c-1.7-6.9,2.7-17.5,11.9-29
			c17.2-21.4,51.3-29.2,51.6-29.3l2.4-0.5l1.1-1.7l15.8-3.7c13.3-3.1,35.3-7.6,41.3-7.6h13.5l-9.1-10c-0.1-0.1-12.6-14-17-22.8
			c-2.5-4.9-6.4-11.5-12.4-11.5c-1.6,0-2.9,0.5-3.6,1l-1.9,1.1l-0.7,2c-5.6,15.9-13.2,34.9-15.8,37.7L170,208
			c7.5-15.8,22-50.5,24-55.1l1.1-2.7l-1.4-2.6c-13.5-24-14.7-37.5-15.5-45.5c-0.2-2.3-0.4-4.3-0.8-6.1c-0.7-3.3,0.8-15.5,6.7-23.3
			c2.7-3.6,5.9-5.5,9.5-5.7c0.3,0,0.5,0,0.8,0c2.7,0,4.9,0.9,6.7,2.8c3.9,4,8.4,14.1,7.8,40c-0.1,6.3-6.1,25.9-9.9,36.8l-0.9,2.5
			l4.1,7.5l8.1,9c6.9,10.7,30.9,34.5,31.9,35.5l1.9,1.9l2.7-0.2c0,0,3.4-0.2,8.5-0.2c8.3,0,20.2,0.6,30.2,3.4l2.2,0.6
			c20,5.6,28.6,9.3,27.8,21.4c-0.6,7.9-10.6,9.6-19,9.6h0c-6.4,0-14-1.1-20.3-2.9c-11-3.1-27.6-19.4-33.2-25.4l-1.9-2l-2.7,0.1
			c-0.4,0-10.1,0.3-29.4,2.2c-19.8,1.9-40.7,8.8-41.5,9.1l-1.3,0.4l-1,1c-0.5,0.5-2.1,2.1-21,33
			C132.5,272.7,120.4,283.6,110.3,283.6z M143.5,228.3c-14.9,7.3-38.3,24.6-41.3,38.2c-1.1,4.8,0.5,8.1,2,10
			c1.9,2.4,4.6,3.7,7.7,3.7c13.8,0,33.6-31.1,33.8-31.4c4.6-7.5,6.2-13.1,6.3-13.7l3.4-12.7L143.5,228.3z M267,205.6
			c-4.1,0-6.2,0.4-6.6,0.5l-10.6,2.3l7.6,7.8c11.5,11.8,23.4,18.6,34.4,19.5c1.6,0.1,3.2,0.2,4.6,0.2c7.1,0,11.6-1.7,13.7-5.3
			c1.5-2.5,1.5-5.5,0-8.3c-3-5.6-12.7-12.5-27.6-15.1C276.8,206.1,271.5,205.6,267,205.6z M195.3,71.9c-4.1,0-11.3,3.1-13.5,24.2
			c-1.5,13.8,7.5,34.7,8.5,37.1l6.5,15l4.7-15.6c0.1-0.5,3.4-11.2,4.7-20.1c0.9-5.5,0.2-14.6-0.6-21.4c-1.9-14.4-4.4-17.8-8.3-18.9
			C196.6,72,195.9,71.9,195.3,71.9z"/>
		<path class="st3" d="M194.4,61c-0.4,0-0.8,0-1.1,0c-18.2,1.1-23.3,28.7-21.7,36.2c1.6,7.5-0.8,22,16.9,53.4
			c0,0-22.5,53.9-27.1,61.1c0,0-36.2,8-55,31.4c-18.8,23.3-16.1,39.4-4,44.8c2.4,1.1,5.1,1.7,7.9,1.7c11,0,24.6-9.2,39.3-33.3
			c18.5-30.3,20.1-31.9,20.1-31.9s20.9-7,40.2-8.8c19.3-1.9,29-2.1,29-2.1s20.9,22.8,35.9,27.1c5.8,1.7,14,3.1,21.9,3.1
			c12.4,0,24.2-3.5,25-15.2c1.3-19-16.6-23.2-34.3-28.2c-10.8-3-23.5-3.6-31.9-3.6c-5.4,0-8.9,0.2-8.9,0.2s-25.2-24.9-31.4-34.9
			l-8-8.8l-2.5-4.6c0,0,10-29.1,10.2-38.6C215.5,84.9,211.7,61,194.4,61L194.4,61z M195.7,130.8c0,0-9.4-21.4-8-34
			c1.3-11.9,4.7-18.8,7.6-18.8c0.2,0,0.3,0,0.5,0.1c2.9,0.8,5.9,24.9,4.6,33.5C198.9,120,195.7,130.8,195.7,130.8L195.7,130.8z
			 M180.7,205.8c4.8-4.8,17.2-39.9,17.2-39.9s0.2-0.1,0.5-0.1c1,0,3.4,0.9,7,8.1c4.8,9.7,18,24.1,18,24.1
			C214.5,198.1,180.7,205.8,180.7,205.8L180.7,205.8z M296.4,229.9c-1.3,0-2.6-0.1-4.1-0.2c-9.7-0.8-20.4-7.2-30.6-17.7
			c0,0,1.7-0.4,5.3-0.4c3.3,0,8,0.3,14.5,1.4c13.7,2.4,21.4,8.6,23.3,12.1C306.4,228.1,303.2,229.9,296.4,229.9L296.4,229.9z
			 M111.8,274.3c-1.2,0-2.2-0.4-3-1.4c-6.4-8,17.2-29.2,37.3-39.1c0,0-1.3,5.1-5.6,12.1C136.7,251.9,120.2,274.3,111.8,274.3
			L111.8,274.3z"/>
	</g>
	<g>
		<g>
			<path class="st1" d="M160.2,372.8v-64.1c5-0.6,10.8-0.8,17.3-0.8c9,0,15.6,1.6,19.6,4.8l0.1,0.1c3.6,2.8,5.8,7.6,5.8,12.9
				c0,5.8-1.8,10.7-5,13.7c-4.5,4.3-11.7,6.5-20.7,6.5c-1.9,0-3.6-0.1-5-0.3l-6.9-1.1v28.3H160.2z M178.4,309
				c-3.4,0-6.4,0.3-8.4,0.7l-4.7,1.1v32.1l4.7,1.1c1.9,0.4,4,0.6,7.1,0.6c12.5,0,20.8-7.4,20.8-18.4
				C197.9,315.7,190.2,309,178.4,309z"/>
			<path class="st3" d="M177.5,301.9c-10.5,0-18,0.7-23.3,1.6v75.3h17.1v-27.3c1.6,0.2,3.6,0.4,5.9,0.4c10.1,0,18.9-2.6,24.8-8.1
				c4.5-4.2,7-10.6,7-18.1c0-7.5-3.2-13.9-8.1-17.7C195.8,303.9,188.1,301.9,177.5,301.9L177.5,301.9z M177.1,338.6
				c-2.5,0-4.3-0.1-5.7-0.5v-22.6c1.3-0.3,3.6-0.6,7-0.6c8.7,0,13.5,4.2,13.5,11.2C191.9,333.9,186.2,338.6,177.1,338.6L177.1,338.6
				z"/>
		</g>
		<g>
			<path class="st1" d="M239.7,373.6c-5.7,0-10.2-0.2-13.6-0.5v-64.4c5.2-0.6,11.2-0.9,17.3-0.9c12.7,0,21.3,2.2,27.7,7
				c7,5.2,10.5,13.3,10.5,23.9c0,11.5-3.6,20.6-10.5,26.3C264.4,370.7,253.5,373.6,239.7,373.6z M245.1,309.2
				c-3.6,0-6.8,0.3-9.1,0.8l-4.7,1v59.8l4.9,0.9c2,0.4,4.5,0.4,7.1,0.4c0,0,0.4,0,0.4,0c9.4,0,17.3-2.9,22.8-8.3
				c5.8-5.8,8.8-14,8.8-24.4c0-9.2-2.8-16.8-8-22.1C261.9,312,254.3,309.2,245.1,309.2z"/>
			<path class="st3" d="M243.3,301.9c-8.7,0-16.9,0.6-23.3,1.6v75c4.2,0.6,10.6,1.1,19.6,1.1c14.9,0,27.2-3.2,35.2-9.9
				c7.3-6.2,12.6-16.3,12.6-30.9c0-13.5-5-22.8-12.9-28.7C267.3,304.5,257.8,301.9,243.3,301.9L243.3,301.9z M243.7,366.1
				c-0.1,0-0.2,0-0.4,0c-2.1,0-4.5,0-6-0.3v-50c1.5-0.3,4.1-0.7,7.8-0.7c14.8,0,24.1,8.3,24.1,24.2
				C269.2,357.5,259.1,366.1,243.7,366.1L243.7,366.1z"/>
		</g>
		<g>
			<polygon class="st1" points="304.9,372.8 304.9,308.5 339.5,308.5 339.5,310.6 310.2,310.6 310.2,340.1 337.6,340.1 337.6,342.1 
				310.2,342.1 310.2,372.8 			"/>
			<polygon class="st3" points="345.5,302.5 298.9,302.5 298.9,378.8 316.2,378.8 316.2,348.1 343.6,348.1 343.6,334.1 316.2,334.1 
				316.2,316.6 345.5,316.6 345.5,302.5 			"/>
		</g>
	</g>
</g>
</svg>
