<?xml version="1.0" encoding="utf-8"?>
<!-- Generator: Adobe Illustrator 25.0.1, SVG Export Plug-In . SVG Version: 6.00 Build 0)  -->
<svg version="1.1" id="Layer_1" xmlns="http://www.w3.org/2000/svg" xmlns:xlink="http://www.w3.org/1999/xlink" x="0px" y="0px"
	 viewBox="0 0 432 432" style="enable-background:new 0 0 432 432;" xml:space="preserve">
<style type="text/css">
	.st0{fill:#F9C0C7;}
	.st1{fill:#FFFFFF;}
	.st2{fill:#529BBA;}
	.st3{fill:url(#SVGID_1_);}
	.st4{fill:#7FDAEF;}
	.st5{fill:none;stroke:#F9C0C7;stroke-miterlimit:10;}
</style>
<path class="st0" d="M533.1-103.1c0,0,7.9-23,8.1-30.6c0.4-20.2-2.8-39.6-17.2-38.7c-14.5,0.9-18.5,22.8-17.2,28.7
	c1.3,6-0.6,17.4,13.4,42.3c0,0-17.9,42.7-21.5,48.5c0,0-28.7,6.4-43.6,24.9c-14.9,18.5-12.8,31.3-3.2,35.5
	c9.6,4.3,22.8-1.1,37.4-25.1s15.9-25.3,15.9-25.3s16.6-5.5,31.9-7s23-1.7,23-1.7s16.6,18.1,28.5,21.5c11.9,3.4,36.2,5.5,37.2-9.6
	s-13.2-18.4-27.2-22.4s-32.3-2.7-32.3-2.7s-20-19.8-24.9-27.6l-6.3-7L533.1-103.1z"/>
<g id="Y4SGrh.tif">
	
		<image style="overflow:visible;enable-background:new    ;" width="126" height="144" id="Layer_0_1_" xlink:href="../F2C81A671CFDFE8.png"  transform="matrix(0.4926 0 0 0.4926 -78.5532 137.0622)">
	</image>
</g>
<g>
	<path class="st1" d="M109.5,372.3c-7.6,0-13.7-6.1-13.7-13.7V73.4c0-7.6,6.1-13.7,13.7-13.7h169.7l14.7,22.7l0.4,0.3
		c1.3,1.1,3,4.2,4.7,7.2c3.5,6.3,7.9,14.2,14.9,17.5l22.4,15.8v235.4c0,7.5-6.1,13.6-13.7,13.6H109.5z"/>
	<path class="st2" d="M277.3,63.2l13.3,20.7l0.6,0.9l0.8,0.7c0.8,0.8,2.6,3.9,3.9,6.3c3.7,6.7,8.3,15,16.2,18.8l20.6,14.6v233.6
		c0,5.6-4.6,10.1-10.2,10.1h-213c-5.6,0-10.2-4.6-10.2-10.2V73.4c0-5.6,4.6-10.2,10.2-10.2H277.3 M281.1,56.2H109.5
		c-9.5,0-17.2,7.7-17.2,17.2v285.2c0,9.5,7.7,17.2,17.2,17.2h213c9.5,0,17.2-7.7,17.2-17.1V121.5l-24.1-17
		c-9.8-4.4-14.3-20.4-19.1-24.4L281.1,56.2L281.1,56.2z"/>
</g>
<path class="st1" d="M-122.2,203.1h-163c-2.4,0-4.4-1.9-4.4-4.4v-14.1c0-2.4,1.9-4.4,4.4-4.4h163c2.4,0,4.4,1.9,4.4,4.4v14.1
	C-117.9,201.2-119.8,203.1-122.2,203.1z"/>
<path class="st1" d="M-122.1,244h-163.2c-2.4,0-4.3-1.9-4.3-4.3v-14.3c0-2.4,1.9-4.3,4.3-4.3h163.2c2.4,0,4.3,1.9,4.3,4.3v14.3
	C-117.9,242.1-119.8,244-122.1,244z"/>
<path class="st1" d="M-122.9,285h-161.7c-2.8,0-5-2.2-5-5v-12.8c0-2.8,2.2-5,5-5h161.7c2.8,0,5,2.2,5,5V280
	C-117.9,282.7-120.1,285-122.9,285z"/>
<path class="st1" d="M-171.6,325.9h-112.2c-3.2,0-5.8-2.6-5.8-5.8v-11.3c0-3.2,2.6-5.8,5.8-5.8h112.3c3.2,0,5.8,2.6,5.8,5.8v11.3
	C-165.8,323.3-168.4,325.9-171.6,325.9z"/>
<linearGradient id="SVGID_1_" gradientUnits="userSpaceOnUse" x1="300.6983" y1="329.2983" x2="347.9983" y2="281.9983" gradientTransform="matrix(1 0 0 -1 0 432)">
	<stop  offset="0.2625" style="stop-color:#57BBE9"/>
	<stop  offset="1" style="stop-color:#FFFFFF;stop-opacity:0"/>
</linearGradient>
<path class="st3" d="M296.8,106.6c0,0,5.4,15.7,19.8,31.7s22.1,21,22.1,21l1-37.8L296.8,106.6z"/>
<path class="st4" d="M281.1,56.2L281.1,56.2c0,0-1.1,15.3-2.2,29c-1.4,17.9,2.2,26.2,11.7,28.6c4.6,1.2,12.9,3.8,21.2,4.9
	c13.7,1.7,28,2.8,28,2.8l-15.3-18.3C311.8,89.4,287.7,63.9,281.1,56.2z"/>
<g id="d39PdJ.tif">
	
		<image style="overflow:visible;" width="292" height="388" id="Layer_0_2_" xlink:href="877D959A7D058EA9.png"  transform="matrix(1 0 0 1 500.4565 14.0002)">
	</image>
</g>
<path class="st5" d="M623.9,175c0,0,7.9-23,8.1-30.6c0.4-20.2-2.8-39.6-17.2-38.7c-14.5,0.9-18.5,22.8-17.2,28.7
	c1.3,6-0.6,17.4,13.4,42.3c0,0-17.9,42.7-21.5,48.5c0,0-28.7,6.4-43.6,24.9s-12.8,31.3-3.2,35.5c9.6,4.3,22.8-1.1,37.4-25.1
	c14.7-24,15.9-25.3,15.9-25.3s16.6-5.5,31.9-7c15.3-1.5,23-1.7,23-1.7s16.6,18.1,28.5,21.5c11.9,3.4,36.2,5.5,37.2-9.6
	c1.1-15.1-13.2-18.4-27.2-22.4s-32.3-2.7-32.3-2.7s-20-19.8-24.9-27.6l-6.3-7L623.9,175z"/>
<path class="st5" d="M616.7,161c0,0-7.4-17-6.4-27s4-15.5,6.4-14.9c2.3,0.6,4.7,19.8,3.6,26.6C619.3,152.5,616.7,161,616.7,161z"/>
<path class="st5" d="M618.4,188.9c0,0-9.8,27.9-13.6,31.7c0,0,26.8-6.2,33.8-6.2c0,0-10.4-11.5-14.2-19.1
	C620.5,187.6,618.4,188.9,618.4,188.9z"/>
<path class="st5" d="M577.4,242.7c-15.9,7.9-34.7,24.7-29.6,31s21.7-15.9,25.1-21.5S577.4,242.7,577.4,242.7z"/>
<path class="st5" d="M669,225.4c8.1,8.3,16.6,13.4,24.2,14c7.7,0.6,11.5-0.9,10-3.6c-1.5-2.8-7.7-7.7-18.5-9.6
	C673.9,224.4,669,225.4,669,225.4z"/>
<path class="st0" d="M525.9-117.1c0,0-7.4-17-6.4-27s4-15.5,6.4-14.9s4.7,19.8,3.6,26.6C528.5-125.6,525.9-117.1,525.9-117.1z"/>
<path class="st0" d="M527.6-89.3c0,0-9.8,27.9-13.6,31.7c0,0,26.8-6.2,33.8-6.2c0,0-10.4-11.5-14.2-19.1S527.6-89.3,527.6-89.3z"/>
<path class="st0" d="M486.6-35.5c-15.9,7.9-34.7,24.7-29.6,31c5.1,6.4,21.7-15.9,25.1-21.5C485.5-31.4,486.6-35.5,486.6-35.5z"/>
<path class="st0" d="M578.2-52.7c8.1,8.3,16.6,13.4,24.2,14c7.7,0.6,11.5-0.9,10-3.6c-1.5-2.8-7.7-7.7-18.5-9.6
	S578.2-52.7,578.2-52.7z"/>
<path class="st4" d="M263.1,227.6c-10.9-3.1-25.2-2.1-25.2-2.1s-15.6-15.4-19.4-21.5l-4.9-5.5l-1.5-2.8c0,0,6.2-18,6.3-23.9
	c0.3-15.7-2.2-30.8-13.4-30.2c-11.3,0.7-14.4,17.8-13.4,22.4s-0.5,13.6,10.4,33c0,0-13.9,33.3-16.7,37.8c0,0-22.4,5-34,19.4
	c-11.6,14.4-9.9,24.4-2.5,27.7c7.5,3.3,17.7-0.8,29.2-19.6c11.4-18.7,12.4-19.7,12.4-19.7s12.9-4.3,24.9-5.5
	c11.9-1.2,17.9-1.3,17.9-1.3s12.9,14.1,22.2,16.7c9.3,2.7,28.2,4.3,29-7.5C285.2,233.3,274.1,230.7,263.1,227.6z M172.3,255.9
	c-2.7,4.3-15.6,21.7-19.6,16.7c-4-5,10.6-18.1,23-24.2C175.8,248.4,175,251.5,172.3,255.9z M201.5,163.7c0.8-7.8,3.1-12.1,5-11.6
	c1.8,0.5,3.6,15.4,2.8,20.7c-0.8,5.3-2.8,11.9-2.8,11.9S200.7,171.5,201.5,163.7z M197.2,231.2c3-3,10.6-24.7,10.6-24.7s1.7-1,4.6,5
	c3,6,11.1,14.9,11.1,14.9C218.1,226.4,197.2,231.2,197.2,231.2z M266.1,245.9c-6-0.5-12.6-4.5-18.9-10.9c0,0,3.8-0.8,12.3,0.7
	c8.5,1.5,13.3,5.3,14.4,7.5C275.1,245.2,272.1,246.4,266.1,245.9z"/>
<g>
	<path class="st4" d="M216.3,305.8c2.9-0.5,6.9-0.9,12.6-0.9c5.7,0,9.9,1.1,12.6,3.3c2.6,2,4.4,5.5,4.4,9.5c0,4-1.3,7.5-3.8,9.8
		c-3.2,3-7.9,4.4-13.4,4.4c-1.2,0-2.3-0.1-3.2-0.2v14.8h-9.2V305.8z M225.6,324.5c0.8,0.2,1.7,0.2,3.1,0.2c5,0,8-2.5,8-6.7
		c0-3.8-2.6-6.1-7.3-6.1c-1.8,0-3.1,0.2-3.8,0.3V324.5z"/>
	<path class="st4" d="M251.9,305.8c3.4-0.6,7.9-0.9,12.6-0.9c7.8,0,12.9,1.4,16.9,4.4c4.3,3.2,7,8.2,7,15.5c0,7.9-2.9,13.4-6.8,16.7
		c-4.3,3.6-11,5.3-19,5.3c-4.8,0-8.3-0.3-10.6-0.6V305.8z M261.2,339.4c0.8,0.2,2.1,0.2,3.3,0.2c8.4,0.1,14-4.6,14-14.5
		c0-8.6-5-13.1-13-13.1c-2,0-3.4,0.2-4.2,0.4V339.4z"/>
	<path class="st4" d="M294.4,305.2h25.2v7.6h-15.9v9.5h14.8v7.6h-14.8v16.6h-9.3V305.2z"/>
</g>
</svg>
