<?xml version="1.0" encoding="utf-8"?>
<!-- Generator: Adobe Illustrator 24.0.1, SVG Export Plug-In . SVG Version: 6.00 Build 0)  -->
<svg version="1.1" id="Layer_1" xmlns="http://www.w3.org/2000/svg" xmlns:xlink="http://www.w3.org/1999/xlink" x="0px" y="0px"
	 viewBox="0 0 200 200" style="enable-background:new 0 0 200 200;" xml:space="preserve">
<style type="text/css">
	.st0{stroke:#FFFFFF;stroke-miterlimit:10;}
	.st1{fill:#FFFFFF;stroke:#000000;stroke-miterlimit:10;}
	.st2{fill:#FFFFFF;}
</style>
<path d="M148.2,17.9H45.5C30.3,17.9,18,29.3,18,43.3v65.4c0,14,12.3,25.4,27.5,25.4h11.6l-1.8,26.9c0,0-0.8,7.1,3.4,7.1
	c0,0,5.6,0.3,12.9-6.1c5.1-4.4,20.7-19.4,29.6-27.9h47c15.2,0,27.5-11.4,27.5-25.4V43.3C175.7,29.3,163.3,17.9,148.2,17.9z"/>
<g id="JV3CMv.tif">
	
		<image style="overflow:visible;" width="169" height="170" id="Layer_0_1_" xlink:href="AD7777A40B8C1CDE.png"  transform="matrix(1 0 0 1 -215.6878 20.1389)">
	</image>
</g>
<path class="st0" d="M-55.8-74.3h-62.1c-7.6,0-13.8-6.2-13.8-13.8v-152.5c0-7.6,6.2-13.8,13.8-13.8h62.1c7.6,0,13.8,6.2,13.8,13.8
	v152.5C-42-80.5-48.2-74.3-55.8-74.3z"/>
<path class="st1" d="M-55.4-78.2h-62.9c-5.1,0-9.3-4.1-9.3-9.3v-153.9c0-5.1,4.1-9.3,9.3-9.3h62.9c5.1,0,9.3,4.1,9.3,9.3v153.9
	C-46.1-82.3-50.3-78.2-55.4-78.2z"/>
<rect x="-122.1" y="-236.1" width="70.4" height="127.2"/>
<ellipse class="st0" cx="-86.9" cy="-95.2" rx="9.7" ry="9.7"/>
<path class="st2" d="M-136.3-147.4c0,0,21.1,30.5,22.8,30.8c1.8,0.3,4.2,1,4.9-2.9c0.7-3.9-4.1-7.5-3.7-13.6
	c0.4-6.1,0.7-10.9,0.7-10.9s7.7-1.9,9.7-5s6.4-8.9,6.4-19.1c0-10.2,0-28.7,0-28.7s-2.1-15.8-13.2-17.4s-26.6,0-26.6,0h-32
	c0,0-11.7,1.4-13.2,13.3c-1.5,11.9,37,49.5,37,49.5L-136.3-147.4z"/>
<path d="M-116.5-149.1h-47.4c-10.4,0-18.9-8.5-18.9-18.9v-26.9c0-10.4,8.5-18.9,18.9-18.9h47.4c10.4,0,18.9,8.5,18.9,18.9v26.9
	C-97.6-157.6-106.1-149.1-116.5-149.1z"/>
<path class="st1" d="M-120.3-155.8h-39.8c-8.3,0-15.1-6.8-15.1-15.1v-21c0-8.3,6.8-15.1,15.1-15.1h39.8c8.3,0,15.1,6.8,15.1,15.1v21
	C-105.2-162.6-112-155.8-120.3-155.8z"/>
<path d="M-113.7-123.3c0,0,0.9,0.7,1.6,0c0.6-0.7-6.5-25.7-2.5-28.3c4-2.6-8.3-0.5-8.3-0.5s-11.6-0.8-11.3-0.5
	c0.3,0.4,1.7,2.7,1.7,2.7L-113.7-123.3z"/>
<path class="st2" d="M150.3,27.2h-107c-8.6,0-15.6,7-15.6,15.6v67.5c0,8.6,7,15.6,15.6,15.6h13.4c3.9,0,10.1,2.8,10.1,10.3
	c0,7.6-2.1,20.9-2.1,20.9l30.6-31.2h55c8.6,0,15.6-7,15.6-15.6V42.8C165.9,34.2,159,27.2,150.3,27.2z"/>
<g>
	<ellipse cx="61.1" cy="73.6" rx="11.9" ry="11.9"/>
	<ellipse cx="96.8" cy="73.6" rx="11.9" ry="11.9"/>
	<ellipse cx="132.6" cy="73.6" rx="11.9" ry="11.9"/>
</g>
</svg>
