<?xml version="1.0" encoding="utf-8"?>
<!-- Generator: Adobe Illustrator 24.0.1, SVG Export Plug-In . SVG Version: 6.00 Build 0)  -->
<svg version="1.1" id="Layer_1" xmlns="http://www.w3.org/2000/svg" xmlns:xlink="http://www.w3.org/1999/xlink" x="0px" y="0px"
	 viewBox="0 0 400 276" style="enable-background:new 0 0 400 276;" xml:space="preserve">
<g>
	<path d="M25.3,112.7v-77h11.6c5.2,0,9.3,0.4,12.3,1.2c3.1,0.8,5.7,2.1,7.8,4c2.2,2,3.9,4.4,5.1,7.3c1.3,3,1.9,6,1.9,9
		c0,5.5-2.1,10.2-6.3,14c4.1,1.4,7.3,3.8,9.7,7.3C69.9,82,71,86.1,71,90.6c0,6-2.1,11.1-6.4,15.3c-2.6,2.6-5.4,4.3-8.6,5.3
		c-3.5,1-7.9,1.4-13.1,1.4H25.3z M36.9,68.7h3.6c4.3,0,7.5-1,9.5-2.9c2-1.9,3-4.7,3-8.5c0-3.6-1-6.4-3.1-8.3c-2.1-1.9-5.1-2.8-9-2.8
		h-4.1V68.7z M36.9,101.8h7.2c5.3,0,9.1-1,11.6-3.1c2.6-2.2,3.9-5.1,3.9-8.5c0-3.3-1.2-6.1-3.7-8.4c-2.4-2.2-6.8-3.3-13-3.3h-5.9
		V101.8z"/>
	<path d="M125.8,94h-33l-8.6,18.7H71.7l38.1-81.9l36.8,81.9h-12.7L125.8,94z M121,83.1l-11.4-26.2l-12,26.2H121z"/>
	<path d="M180.2,79.9l23.8,32.8h-14.2l-22-31.5h-2.1v31.5h-11.6v-77h13.6c10.2,0,17.5,1.9,22.1,5.7c5,4.3,7.5,9.9,7.5,16.9
		c0,5.5-1.6,10.1-4.7,14.1C189.5,76.3,185.4,78.8,180.2,79.9z M165.8,71h3.7c11,0,16.5-4.2,16.5-12.6c0-7.9-5.4-11.8-16.1-11.8h-4.1
		V71z"/>
	<path d="M236,46.6v66.1h-11.6V46.6h-17.7V35.7h47v10.9H236z"/>
	<path d="M25.3,235.3v-77h16.2c7.7,0,13.9,0.8,18.4,2.3c4.8,1.5,9.2,4,13.1,7.6c7.9,7.3,11.9,16.8,11.9,28.6
		c0,11.8-4.1,21.4-12.4,28.7c-4.2,3.7-8.5,6.2-13.1,7.6c-4.3,1.4-10.3,2.1-18.1,2.1H25.3z M36.9,224.4h5.2c5.2,0,9.6-0.5,13-1.6
		c3.5-1.2,6.6-3,9.4-5.5c5.7-5.2,8.6-12,8.6-20.4c0-8.4-2.8-15.3-8.5-20.6c-5.1-4.7-12.6-7-22.5-7h-5.2V224.4z"/>
	<path d="M89.5,196.4c0-10.8,4-20.2,11.9-27.9c7.9-7.8,17.4-11.7,28.5-11.7c11,0,20.4,3.9,28.2,11.8c7.9,7.8,11.8,17.3,11.8,28.3
		c0,11.1-4,20.5-11.9,28.2c-7.9,7.7-17.5,11.6-28.8,11.6c-9.9,0-18.9-3.4-26.8-10.3C93.9,218.7,89.5,208.8,89.5,196.4z M101.2,196.6
		c0,8.5,2.9,15.5,8.6,21c5.7,5.5,12.3,8.2,19.7,8.2c8.1,0,14.9-2.8,20.5-8.4c5.6-5.7,8.3-12.5,8.3-20.7c0-8.2-2.7-15.1-8.2-20.7
		c-5.5-5.6-12.2-8.4-20.3-8.4c-8,0-14.8,2.8-20.3,8.4C104,181.6,101.2,188.5,101.2,196.6z"/>
	<path d="M202.6,202.5l23.8,32.8h-14.2l-22-31.5h-2.1v31.5h-11.6v-77h13.6c10.2,0,17.5,1.9,22,5.7c5,4.3,7.5,9.9,7.5,16.9
		c0,5.5-1.6,10.1-4.7,14.1C211.8,198.9,207.7,201.4,202.6,202.5z M188.1,193.6h3.7c11,0,16.5-4.2,16.5-12.6
		c0-7.9-5.4-11.8-16.1-11.8h-4.1V193.6z"/>
	<path d="M247.6,158.3v77h-11.6v-77H247.6z"/>
	<path d="M287.3,169.2v66.1h-11.6v-66.1H258v-10.9h47v10.9H287.3z"/>
	<path d="M335.9,202l-25.1-43.8h13.4l17.6,30.8l17.7-30.8h13.4L347.5,202v33.3h-11.6V202z"/>
</g>
</svg>
